  0
SECTION
  2
HEADER
  9
$ACADVER
  1
AC1018
  9
$ACADMAINTVER
 70
     0
  9
$DWGCODEPAGE
  3
ANSI_932
  9
$INSBASE
 10
0.0
 20
0.0
 30
0.0
  9
$EXTMIN
 10
1.000000000000000E+20
 20
1.000000000000000E+20
 30
1.000000000000000E+20
  9
$EXTMAX
 10
-1.000000000000000E+20
 20
-1.000000000000000E+20
 30
-1.000000000000000E+20
  9
$LIMMIN
 10
0.0
 20
0.0
  9
$LIMMAX
 10
12.0
 20
9.0
  9
$ORTHOMODE
 70
     0
  9
$REGENMODE
 70
     1
  9
$FILLMODE
 70
     1
  9
$QTEXTMODE
 70
     0
  9
$MIRRTEXT
 70
     1
  9
$LTSCALE
 40
1.0
  9
$ATTMODE
 70
     1
  9
$TEXTSIZE
 40
0.2
  9
$TRACEWID
 40
0.05
  9
$TEXTSTYLE
  7
Standard
  9
$CLAYER
  8
0
  9
$CELTYPE
  6
ByLayer
  9
$CECOLOR
 62
   256
  9
$CELTSCALE
 40
1.0
  9
$DISPSILH
 70
     0
  9
$DIMSCALE
 40
1.0
  9
$DIMASZ
 40
0.18
  9
$DIMEXO
 40
0.0625
  9
$DIMDLI
 40
0.38
  9
$DIMRND
 40
0.0
  9
$DIMDLE
 40
0.0
  9
$DIMEXE
 40
0.18
  9
$DIMTP
 40
0.0
  9
$DIMTM
 40
0.0
  9
$DIMTXT
 40
0.18
  9
$DIMCEN
 40
0.09
  9
$DIMTSZ
 40
0.0
  9
$DIMTOL
 70
     0
  9
$DIMLIM
 70
     0
  9
$DIMTIH
 70
     1
  9
$DIMTOH
 70
     1
  9
$DIMSE1
 70
     0
  9
$DIMSE2
 70
     0
  9
$DIMTAD
 70
     0
  9
$DIMZIN
 70
     0
  9
$DIMBLK
  1

  9
$DIMASO
 70
     1
  9
$DIMSHO
 70
     1
  9
$DIMPOST
  1

  9
$DIMAPOST
  1

  9
$DIMALT
 70
     0
  9
$DIMALTD
 70
     2
  9
$DIMALTF
 40
25.4
  9
$DIMLFAC
 40
1.0
  9
$DIMTOFL
 70
     0
  9
$DIMTVP
 40
0.0
  9
$DIMTIX
 70
     0
  9
$DIMSOXD
 70
     0
  9
$DIMSAH
 70
     0
  9
$DIMBLK1
  1

  9
$DIMBLK2
  1

  9
$DIMSTYLE
  2
Standard
  9
$DIMCLRD
 70
     0
  9
$DIMCLRE
 70
     0
  9
$DIMCLRT
 70
     0
  9
$DIMTFAC
 40
1.0
  9
$DIMGAP
 40
0.09
  9
$DIMJUST
 70
     0
  9
$DIMSD1
 70
     0
  9
$DIMSD2
 70
     0
  9
$DIMTOLJ
 70
     1
  9
$DIMTZIN
 70
     0
  9
$DIMALTZ
 70
     0
  9
$DIMALTTZ
 70
     0
  9
$DIMUPT
 70
     0
  9
$DIMDEC
 70
     4
  9
$DIMTDEC
 70
     4
  9
$DIMALTU
 70
     2
  9
$DIMALTTD
 70
     2
  9
$DIMTXSTY
  7
Standard
  9
$DIMAUNIT
 70
     0
  9
$DIMADEC
 70
     0
  9
$DIMALTRND
 40
0.0
  9
$DIMAZIN
 70
     0
  9
$DIMDSEP
 70
    46
  9
$DIMATFIT
 70
     3
  9
$DIMFRAC
 70
     0
  9
$DIMLDRBLK
  1

  9
$DIMLUNIT
 70
     2
  9
$DIMLWD
 70
    -2
  9
$DIMLWE
 70
    -2
  9
$DIMTMOVE
 70
     0
  9
$LUNITS
 70
     2
  9
$LUPREC
 70
     4
  9
$SKETCHINC
 40
0.1
  9
$FILLETRAD
 40
0.5
  9
$AUNITS
 70
     0
  9
$AUPREC
 70
     0
  9
$MENU
  1
.
  9
$ELEVATION
 40
0.0
  9
$PELEVATION
 40
0.0
  9
$THICKNESS
 40
0.0
  9
$LIMCHECK
 70
     0
  9
$CHAMFERA
 40
0.5
  9
$CHAMFERB
 40
0.5
  9
$CHAMFERC
 40
1.0
  9
$CHAMFERD
 40
0.0
  9
$SKPOLY
 70
     0
  9
$TDCREATE
 40
2456030.8709375
  9
$TDUCREATE
 40
2456030.8709375
  9
$TDUPDATE
 40
2456030.870937512
  9
$TDUUPDATE
 40
2456030.870937512
  9
$TDINDWG
 40
0.0000000116
  9
$TDUSRTIMER
 40
0.0000000116
  9
$USRTIMER
 70
     1
  9
$ANGBASE
 50
0.0
  9
$ANGDIR
 70
     0
  9
$PDMODE
 70
     0
  9
$PDSIZE
 40
0.0
  9
$PLINEWID
 40
0.0
  9
$SPLFRAME
 70
     0
  9
$SPLINETYPE
 70
     6
  9
$SPLINESEGS
 70
     8
  9
$HANDSEED
  5
9D
  9
$SURFTAB1
 70
     6
  9
$SURFTAB2
 70
     6
  9
$SURFTYPE
 70
     6
  9
$SURFU
 70
     6
  9
$SURFV
 70
     6
  9
$UCSBASE
  2

  9
$UCSNAME
  2

  9
$UCSORG
 10
0.0
 20
0.0
 30
0.0
  9
$UCSXDIR
 10
1.0
 20
0.0
 30
0.0
  9
$UCSYDIR
 10
0.0
 20
1.0
 30
0.0
  9
$UCSORTHOREF
  2

  9
$UCSORTHOVIEW
 70
     0
  9
$UCSORGTOP
 10
0.0
 20
0.0
 30
0.0
  9
$UCSORGBOTTOM
 10
0.0
 20
0.0
 30
0.0
  9
$UCSORGLEFT
 10
0.0
 20
0.0
 30
0.0
  9
$UCSORGRIGHT
 10
0.0
 20
0.0
 30
0.0
  9
$UCSORGFRONT
 10
0.0
 20
0.0
 30
0.0
  9
$UCSORGBACK
 10
0.0
 20
0.0
 30
0.0
  9
$PUCSBASE
  2

  9
$PUCSNAME
  2

  9
$PUCSORG
 10
0.0
 20
0.0
 30
0.0
  9
$PUCSXDIR
 10
1.0
 20
0.0
 30
0.0
  9
$PUCSYDIR
 10
0.0
 20
1.0
 30
0.0
  9
$PUCSORTHOREF
  2

  9
$PUCSORTHOVIEW
 70
     0
  9
$PUCSORGTOP
 10
0.0
 20
0.0
 30
0.0
  9
$PUCSORGBOTTOM
 10
0.0
 20
0.0
 30
0.0
  9
$PUCSORGLEFT
 10
0.0
 20
0.0
 30
0.0
  9
$PUCSORGRIGHT
 10
0.0
 20
0.0
 30
0.0
  9
$PUCSORGFRONT
 10
0.0
 20
0.0
 30
0.0
  9
$PUCSORGBACK
 10
0.0
 20
0.0
 30
0.0
  9
$USERI1
 70
     0
  9
$USERI2
 70
     0
  9
$USERI3
 70
     0
  9
$USERI4
 70
     0
  9
$USERI5
 70
     0
  9
$USERR1
 40
0.0
  9
$USERR2
 40
0.0
  9
$USERR3
 40
0.0
  9
$USERR4
 40
0.0
  9
$USERR5
 40
0.0
  9
$WORLDVIEW
 70
     1
  9
$SHADEDGE
 70
     3
  9
$SHADEDIF
 70
    70
  9
$TILEMODE
 70
     1
  9
$MAXACTVP
 70
    64
  9
$PINSBASE
 10
0.0
 20
0.0
 30
0.0
  9
$PLIMCHECK
 70
     0
  9
$PEXTMIN
 10
1.000000000000000E+20
 20
1.000000000000000E+20
 30
1.000000000000000E+20
  9
$PEXTMAX
 10
-1.000000000000000E+20
 20
-1.000000000000000E+20
 30
-1.000000000000000E+20
  9
$PLIMMIN
 10
0.0
 20
0.0
  9
$PLIMMAX
 10
12.0
 20
9.0
  9
$UNITMODE
 70
     0
  9
$VISRETAIN
 70
     1
  9
$PLINEGEN
 70
     0
  9
$PSLTSCALE
 70
     1
  9
$TREEDEPTH
 70
  3020
  9
$CMLSTYLE
  2
Standard
  9
$CMLJUST
 70
     0
  9
$CMLSCALE
 40
1.0
  9
$PROXYGRAPHICS
 70
     1
  9
$MEASUREMENT
 70
     0
  9
$CELWEIGHT
370
    -1
  9
$ENDCAPS
280
     0
  9
$JOINSTYLE
280
     0
  9
$LWDISPLAY
290
     1
  9
$INSUNITS
 70
     1
  9
$HYPERLINKBASE
  1

  9
$STYLESHEET
  1

  9
$XEDIT
290
     1
  9
$CEPSNTYPE
380
     0
  9
$PSTYLEMODE
290
     1
  9
$FINGERPRINTGUID
  2
{8D839B3F-2FF9-56F9-FC4C-DAF776BE26E8}
  9
$VERSIONGUID
  2
{FAEB1C32-E019-11D5-929B-00C0DF256EC4}
  9
$EXTNAMES
290
     1
  9
$PSVPSCALE
 40
0.0
  9
$OLESTARTUP
290
     0
  9
$SORTENTS
280
   127
  9
$INDEXCTL
280
     0
  9
$HIDETEXT
280
     1
  9
$XCLIPFRAME
290
     0
  9
$HALOGAP
280
     0
  9
$OBSCOLOR
 70
   257
  9
$OBSLTYPE
280
     0
  9
$INTERSECTIONDISPLAY
280
     0
  9
$INTERSECTIONCOLOR
 70
   257
  9
$DIMASSOC
280
     2
  9
$PROJECTNAME
  1

  0
ENDSEC
  0
SECTION
  2
CLASSES
  0
CLASS
  1
ACDBDICTIONARYWDFLT
  2
AcDbDictionaryWithDefault
  3
ObjectDBX Classes
 90
        0
 91
        3
280
     0
281
     0
  0
CLASS
  1
VISUALSTYLE
  2
AcDbVisualStyle
  3
ObjectDBX Classes
 90
     4095
 91
        3
280
     0
281
     0
  0
ENDSEC
  0
SECTION
  2
TABLES
  0
TABLE
  2
VPORT
  5
8
330
0
100
AcDbSymbolTable
 70
     1
  0
VPORT
  5
29
330
8
100
AcDbSymbolTableRecord
100
AcDbViewportTableRecord
  2
*Active
 70
     0
 10
0.0
 20
0.0
 11
1.0
 21
1.0
 12
0.0
 22
0.0
 13
0.0
 23
0.0
 14
0.5
 24
0.5
 15
0.5
 25
0.5
 16
0.0
 26
0.0
 36
1.0
 17
148.4999796178229
 27
-105.0008259828644
 37
0.0
 40
210.0016519657288
 41
1.414274394775308
 42
50.0
 43
0.0
 44
0.0
 50
0.0
 51
0.0
 71
     0
 72
   100
 73
     1
 74
     3
 75
     0
 76
     0
 77
     0
 78
     0
281
     0
 65
     1
110
0.0
120
0.0
130
0.0
111
1.0
121
0.0
131
0.0
112
0.0
122
1.0
132
0.0
 79
     0
146
0.0
  0
ENDTAB
  0
TABLE
  2
LTYPE
  5
5
330
0
100
AcDbSymbolTable
 70
     1
  0
LTYPE
  5
14
330
5
100
AcDbSymbolTableRecord
100
AcDbLinetypeTableRecord
  2
ByBlock
 70
     0
  3

 72
    65
 73
     0
 40
0.0
  0
LTYPE
  5
15
330
5
100
AcDbSymbolTableRecord
100
AcDbLinetypeTableRecord
  2
ByLayer
 70
     0
  3

 72
    65
 73
     0
 40
0.0
  0
LTYPE
  5
16
330
5
100
AcDbSymbolTableRecord
100
AcDbLinetypeTableRecord
  2
Continuous
 70
     0
  3
Solid line
 72
    65
 73
     0
 40
0.0
  0
ENDTAB
  0
TABLE
  2
LAYER
  5
2
330
0
100
AcDbSymbolTable
 70
     2
  0
LAYER
  5
10
330
2
100
AcDbSymbolTableRecord
100
AcDbLayerTableRecord
  2
0
 70
     0
 62
     7
  6
Continuous
370
    -3
390
F
  0
LAYER
  5
3B
330
2
100
AcDbSymbolTableRecord
100
AcDbLayerTableRecord
  2
Layer 1
 70
     0
 62
     7
  6
Continuous
370
    -3
390
F
  0
ENDTAB
  0
TABLE
  2
STYLE
  5
3
330
0
100
AcDbSymbolTable
 70
     1
  0
STYLE
  5
11
330
3
100
AcDbSymbolTableRecord
100
AcDbTextStyleTableRecord
  2
Standard
 70
     0
 40
0.0
 41
1.0
 50
0.0
 71
     0
 42
0.2
  3
txt
  4

  0
ENDTAB
  0
TABLE
  2
VIEW
  5
6
330
0
100
AcDbSymbolTable
 70
     0
  0
ENDTAB
  0
TABLE
  2
UCS
  5
7
330
0
100
AcDbSymbolTable
 70
     0
  0
ENDTAB
  0
TABLE
  2
APPID
  5
9
330
0
100
AcDbSymbolTable
 70
     1
  0
APPID
  5
12
330
9
100
AcDbSymbolTableRecord
100
AcDbRegAppTableRecord
  2
ACAD
 70
     0
  0
ENDTAB
  0
TABLE
  2
DIMSTYLE
  5
A
330
0
100
AcDbSymbolTable
 70
     1
100
AcDbDimStyleTable
  0
DIMSTYLE
105
27
330
A
100
AcDbSymbolTableRecord
100
AcDbDimStyleTableRecord
  2
Standard
 70
     0
340
11
  0
ENDTAB
  0
TABLE
  2
BLOCK_RECORD
  5
1
330
0
100
AcDbSymbolTable
 70
    10
  0
BLOCK_RECORD
  5
1F
330
1
100
AcDbSymbolTableRecord
100
AcDbBlockTableRecord
  2
*Model_Space
340
22
  0
BLOCK_RECORD
  5
1B
330
1
100
AcDbSymbolTableRecord
100
AcDbBlockTableRecord
  2
*Paper_Space
340
1E
  0
BLOCK_RECORD
  5
23
330
1
100
AcDbSymbolTableRecord
100
AcDbBlockTableRecord
  2
*Paper_Space0
340
26
  0
BLOCK_RECORD
  5
3C
330
1
100
AcDbSymbolTableRecord
100
AcDbBlockTableRecord
  2
block 2
340
0
102
{BLKREFS
331
3D
102
}
  0
BLOCK_RECORD
  5
40
330
1
100
AcDbSymbolTableRecord
100
AcDbBlockTableRecord
  2
block 3
340
0
102
{BLKREFS
331
41
102
}
  0
BLOCK_RECORD
  5
46
330
1
100
AcDbSymbolTableRecord
100
AcDbBlockTableRecord
  2
block 4
340
0
102
{BLKREFS
331
47
102
}
  0
BLOCK_RECORD
  5
4D
330
1
100
AcDbSymbolTableRecord
100
AcDbBlockTableRecord
  2
block 5
340
0
102
{BLKREFS
331
4E
102
}
  0
BLOCK_RECORD
  5
6A
330
1
100
AcDbSymbolTableRecord
100
AcDbBlockTableRecord
  2
block 6
340
0
102
{BLKREFS
331
6B
102
}
  0
BLOCK_RECORD
  5
7D
330
1
100
AcDbSymbolTableRecord
100
AcDbBlockTableRecord
  2
block 7
340
0
102
{BLKREFS
331
7E
102
}
  0
BLOCK_RECORD
  5
82
330
1
100
AcDbSymbolTableRecord
100
AcDbBlockTableRecord
  2
block 8
340
0
102
{BLKREFS
331
83
102
}
  0
BLOCK_RECORD
  5
88
330
1
100
AcDbSymbolTableRecord
100
AcDbBlockTableRecord
  2
block 9
340
0
102
{BLKREFS
331
89
102
}
  0
BLOCK_RECORD
  5
8E
330
1
100
AcDbSymbolTableRecord
100
AcDbBlockTableRecord
  2
block 10
340
0
102
{BLKREFS
331
8F
102
}
  0
ENDTAB
  0
ENDSEC
  0
SECTION
  2
BLOCKS
  0
BLOCK
  5
20
330
1F
100
AcDbEntity
  8
0
100
AcDbBlockBegin
  2
*Model_Space
 70
     0
 71
     0
 10
0.0
 20
0.0
 30
0.0
  3
*Model_Space
  1

  0
ENDBLK
  5
21
330
1F
100
AcDbEntity
  8
0
100
AcDbBlockEnd
  0
BLOCK
  5
1C
330
1B
100
AcDbEntity
 67
     1
  8
0
100
AcDbBlockBegin
  2
*Paper_Space
 70
     0
 71
     0
 10
0.0
 20
0.0
 30
0.0
  3
*Paper_Space
  1

  0
ENDBLK
  5
1D
330
1B
100
AcDbEntity
 67
     1
  8
0
100
AcDbBlockEnd
  0
BLOCK
  5
24
330
23
100
AcDbEntity
  8
0
100
AcDbBlockBegin
  2
*Paper_Space0
 70
     0
 71
     0
 10
0.0
 20
0.0
 30
0.0
  3
*Paper_Space0
  1

  0
ENDBLK
  5
25
330
23
100
AcDbEntity
  8
0
100
AcDbBlockEnd
  0
BLOCK
  5
3E
330
3C
100
AcDbEntity
  8
0
100
AcDbBlockBegin
  2
block 2
 70
     0
 71
     0
 10
0.0
 20
0.0
 30
0.0
  3
block 2
  1

  0
INSERT
  5
41
330
3C
100
AcDbEntity
  8
Layer 1
100
AcDbBlockReference
  2
block 3
 10
0.0
 20
0.0
 30
0.0
  0
INSERT
  5
47
330
3C
100
AcDbEntity
  8
Layer 1
100
AcDbBlockReference
  2
block 4
 10
0.0
 20
0.0
 30
0.0
  0
ENDBLK
  5
3F
330
3C
100
AcDbEntity
  8
0
100
AcDbBlockEnd
  0
BLOCK
  5
42
330
40
100
AcDbEntity
  8
0
100
AcDbBlockBegin
  2
block 3
 70
     0
 71
     0
 10
0.0
 20
0.0
 30
0.0
  3
block 3
  1

  0
SPLINE
  5
44
330
40
100
AcDbEntity
  8
Layer 1
370
     0
100
AcDbSpline
210
0.0
220
0.0
230
1.0
 70
    11
 71
     3
 72
   212
 73
   208
 74
     0
 42
0.0000000001
 43
0.0000000001
 40
0.0
 40
0.0
 40
0.0
 40
0.0
 40
1.0
 40
1.0
 40
1.0
 40
2.0
 40
2.0
 40
2.0
 40
3.0
 40
3.0
 40
3.0
 40
4.0
 40
4.0
 40
4.0
 40
5.0
 40
5.0
 40
5.0
 40
6.0
 40
6.0
 40
6.0
 40
7.0
 40
7.0
 40
7.0
 40
8.0
 40
8.0
 40
8.0
 40
9.0
 40
9.0
 40
9.0
 40
10.0
 40
10.0
 40
10.0
 40
11.0
 40
11.0
 40
11.0
 40
12.0
 40
12.0
 40
12.0
 40
13.0
 40
13.0
 40
13.0
 40
14.0
 40
14.0
 40
14.0
 40
15.0
 40
15.0
 40
15.0
 40
16.0
 40
16.0
 40
16.0
 40
17.0
 40
17.0
 40
17.0
 40
18.0
 40
18.0
 40
18.0
 40
19.0
 40
19.0
 40
19.0
 40
20.0
 40
20.0
 40
20.0
 40
21.0
 40
21.0
 40
21.0
 40
22.0
 40
22.0
 40
22.0
 40
23.0
 40
23.0
 40
23.0
 40
24.0
 40
24.0
 40
24.0
 40
25.0
 40
25.0
 40
25.0
 40
26.0
 40
26.0
 40
26.0
 40
27.0
 40
27.0
 40
27.0
 40
28.0
 40
28.0
 40
28.0
 40
29.0
 40
29.0
 40
29.0
 40
30.0
 40
30.0
 40
30.0
 40
31.0
 40
31.0
 40
31.0
 40
32.0
 40
32.0
 40
32.0
 40
33.0
 40
33.0
 40
33.0
 40
34.0
 40
34.0
 40
34.0
 40
35.0
 40
35.0
 40
35.0
 40
36.0
 40
36.0
 40
36.0
 40
37.0
 40
37.0
 40
37.0
 40
38.0
 40
38.0
 40
38.0
 40
39.0
 40
39.0
 40
39.0
 40
40.0
 40
40.0
 40
40.0
 40
41.0
 40
41.0
 40
41.0
 40
42.0
 40
42.0
 40
42.0
 40
43.0
 40
43.0
 40
43.0
 40
44.0
 40
44.0
 40
44.0
 40
45.0
 40
45.0
 40
45.0
 40
46.0
 40
46.0
 40
46.0
 40
47.0
 40
47.0
 40
47.0
 40
48.0
 40
48.0
 40
48.0
 40
49.0
 40
49.0
 40
49.0
 40
50.0
 40
50.0
 40
50.0
 40
51.0
 40
51.0
 40
51.0
 40
52.0
 40
52.0
 40
52.0
 40
53.0
 40
53.0
 40
53.0
 40
54.0
 40
54.0
 40
54.0
 40
55.0
 40
55.0
 40
55.0
 40
56.0
 40
56.0
 40
56.0
 40
57.0
 40
57.0
 40
57.0
 40
58.0
 40
58.0
 40
58.0
 40
59.0
 40
59.0
 40
59.0
 40
60.0
 40
60.0
 40
60.0
 40
61.0
 40
61.0
 40
61.0
 40
62.0
 40
62.0
 40
62.0
 40
63.0
 40
63.0
 40
63.0
 40
64.0
 40
64.0
 40
64.0
 40
65.0
 40
65.0
 40
65.0
 40
66.0
 40
66.0
 40
66.0
 40
67.0
 40
67.0
 40
67.0
 40
68.0
 40
68.0
 40
68.0
 40
69.0
 40
69.0
 40
69.0
 40
69.0
 10
177.9870686403991
 20
-119.602346432773
 30
0.0
 10
177.9870686403991
 20
-119.602346432773
 30
0.0
 10
176.3396239793526
 20
-119.602346432773
 30
0.0
 10
176.3396239793526
 20
-119.602346432773
 30
0.0
 10
176.3396239793526
 20
-119.602346432773
 30
0.0
 10
174.3638617185618
 20
-119.602346432773
 30
0.0
 10
174.3638617185618
 20
-119.602346432773
 30
0.0
 10
174.3638617185618
 20
-119.602346432773
 30
0.0
 10
170.5749457038841
 20
-119.5985568277393
 30
0.0
 10
170.5749457038841
 20
-119.5985568277393
 30
0.0
 10
167.2059868288582
 20
-119.5985568277393
 30
0.0
 10
164.3344997419025
 20
-118.2794297664371
 30
0.0
 10
161.9566948379831
 20
-115.6404866247357
 30
0.0
 10
161.3427788225115
 20
-114.9597357568503
 30
0.0
 10
160.8101670604919
 20
-114.2400553099817
 30
0.0
 10
160.3550699468904
 20
-113.4814452841296
 30
0.0
 10
160.3550699468904
 20
-113.4814452841296
 30
0.0
 10
160.274110202987
 20
-113.4004855402263
 30
0.0
 10
160.274110202987
 20
-113.4004855402263
 30
0.0
 10
160.274110202987
 20
-113.4004855402263
 30
0.0
 10
160.274110202987
 20
-118.1312906605714
 30
0.0
 10
160.274110202987
 20
-118.1312906605714
 30
0.0
 10
160.274110202987
 20
-118.9426106473477
 30
0.0
 10
159.617819513047
 20
-119.602346432773
 30
0.0
 10
158.8064995262706
 20
-119.602346432773
 30
0.0
 10
158.8064995262706
 20
-119.602346432773
 30
0.0
 10
137.4705064217956
 20
-119.602346432773
 30
0.0
 10
137.4705064217956
 20
-119.602346432773
 30
0.0
 10
137.428131747327
 20
-119.602346432773
 30
0.0
 10
137.3857570728584
 20
-119.5916666367687
 30
0.0
 10
137.3399373029046
 20
-119.5882215412835
 30
0.0
 10
137.3399373029046
 20
-119.5882215412835
 30
0.0
 10
117.9442219757223
 20
-119.5882215412835
 30
0.0
 10
117.9442219757223
 20
-119.5882215412835
 30
0.0
 10
117.9442219757223
 20
-119.5882215412835
 30
0.0
 10
117.9442219757223
 20
-119.566861949275
 30
0.0
 10
117.9442219757223
 20
-119.566861949275
 30
0.0
 10
115.2455064273518
 20
-119.4683322183968
 30
0.0
 10
113.0828477364862
 20
-118.8368462159505
 30
0.0
 10
111.4602077629336
 20
-117.6689588464508
 30
0.0
 10
110.8004719775082
 20
-117.1787217588998
 30
0.0
 10
110.4053195253501
 20
-116.6106255133821
 30
0.0
 10
109.9714097489829
 20
-115.9650146194463
 30
0.0
 10
109.9714097489829
 20
-115.9650146194463
 30
0.0
 10
109.9714097489829
 20
-116.9034586296283
 30
0.0
 10
109.9714097489829
 20
-116.9034586296283
 30
0.0
 10
109.9889797359576
 20
-116.9988877745697
 30
0.0
 10
109.9996595319619
 20
-117.0939724099626
 30
0.0
 10
109.9996595319619
 20
-117.189401554904
 30
0.0
 10
109.9996595319619
 20
-117.189401554904
 30
0.0
 10
109.9996595319619
 20
-118.1312906605714
 30
0.0
 10
109.9996595319619
 20
-118.1312906605714
 30
0.0
 10
109.9996595319619
 20
-118.9426106473477
 30
0.0
 10
109.1917846406708
 20
-119.602346432773
 30
0.0
 10
108.3804646538945
 20
-119.602346432773
 30
0.0
 10
108.3804646538945
 20
-119.602346432773
 30
0.0
 10
98.00159774025654
 20
-119.602346432773
 30
0.0
 10
98.00159774025654
 20
-119.602346432773
 30
0.0
 10
97.94527042907272
 20
-119.602346432773
 30
0.0
 10
97.88877086311462
 20
-119.5916666367687
 30
0.0
 10
97.83227129715652
 20
-119.5847764457983
 30
0.0
 10
97.77594398597269
 20
-119.5916666367687
 30
0.0
 10
97.366666642325
 20
-119.602346432773
 30
0.0
 10
97.31016707636691
 20
-119.602346432773
 30
0.0
 10
96.49884708959057
 20
-119.602346432773
 30
0.0
 10
95.84272865442473
 20
-118.9426106473477
 30
0.0
 10
95.84272865442473
 20
-118.1312906605714
 30
0.0
 10
95.84272865442473
 20
-118.1312906605714
 30
0.0
 10
95.84272865442473
 20
-117.189401554904
 30
0.0
 10
95.84272865442473
 20
-117.189401554904
 30
0.0
 10
95.84272865442473
 20
-117.189401554904
 30
0.0
 10
95.84272865442473
 20
-90.14884709117807
 30
0.0
 10
95.84272865442473
 20
-90.14884709117807
 30
0.0
 10
95.84272865442473
 20
-90.14884709117807
 30
0.0
 10
88.59304197003924
 20
-90.14884709117807
 30
0.0
 10
88.59304197003924
 20
-90.14884709117807
 30
0.0
 10
87.78172198326291
 20
-90.14884709117807
 30
0.0
 10
87.12560354809708
 20
-89.48911130575273
 30
0.0
 10
87.12560354809708
 20
-88.67779131897639
 30
0.0
 10
87.12560354809708
 20
-88.67779131897639
 30
0.0
 10
87.12560354809708
 20
-88.58959687455399
 30
0.0
 10
87.12560354809708
 20
-88.58959687455399
 30
0.0
 10
87.12560354809708
 20
-88.58959687455399
 30
0.0
 10
87.12560354809708
 20
-87.73934730879434
 30
0.0
 10
87.12560354809708
 20
-87.73934730879434
 30
0.0
 10
87.12560354809708
 20
-87.73934730879434
 30
0.0
 10
87.12560354809708
 20
-80.72616642947123
 30
0.0
 10
87.12560354809708
 20
-80.72616642947123
 30
0.0
 10
87.12560354809708
 20
-80.72616642947123
 30
0.0
 10
87.12560354809708
 20
-79.78772241928918
 30
0.0
 10
87.12560354809708
 20
-79.78772241928918
 30
0.0
 10
87.12560354809708
 20
-78.97640243251284
 30
0.0
 10
87.78172198326291
 20
-78.20022241968606
 30
0.0
 10
88.59304197003924
 20
-78.20022241968606
 30
0.0
 10
88.59304197003924
 20
-78.20022241968606
 30
0.0
 10
117.0834648687326
 20
-78.20022241968606
 30
0.0
 10
117.0834648687326
 20
-78.20022241968606
 30
0.0
 10
117.8947848555089
 20
-78.20022241968606
 30
0.0
 10
118.5509032906748
 20
-78.97640243251284
 30
0.0
 10
118.5509032906748
 20
-79.78772241928918
 30
0.0
 10
118.5509032906748
 20
-79.78772241928918
 30
0.0
 10
118.5509032906748
 20
-80.72616642947123
 30
0.0
 10
118.5509032906748
 20
-80.72616642947123
 30
0.0
 10
118.5509032906748
 20
-80.72616642947123
 30
0.0
 10
118.5509032906748
 20
-87.7252224173048
 30
0.0
 10
118.5509032906748
 20
-87.7252224173048
 30
0.0
 10
118.5509032906748
 20
-87.7252224173048
 30
0.0
 10
118.5509032906748
 20
-88.58959687455399
 30
0.0
 10
118.5509032906748
 20
-88.58959687455399
 30
0.0
 10
118.5509032906748
 20
-88.58959687455399
 30
0.0
 10
118.5509032906748
 20
-88.65660398174211
 30
0.0
 10
118.5509032906748
 20
-88.65660398174211
 30
0.0
 10
118.5509032906748
 20
-88.65660398174211
 30
0.0
 10
137.4034993146075
 20
-88.65660398174211
 30
0.0
 10
137.4034993146075
 20
-88.65660398174211
 30
0.0
 10
137.4034993146075
 20
-88.65660398174211
 30
0.0
 10
150.7243055178745
 20
-88.65660398174211
 30
0.0
 10
150.7243055178745
 20
-88.65660398174211
 30
0.0
 10
153.5499728348764
 20
-88.65660398174211
 30
0.0
 10
155.8185682119134
 20
-89.43261173979462
 30
0.0
 10
157.5328477253737
 20
-90.99203421119297
 30
0.0
 10
158.7675699472873
 20
-92.11737465144982
 30
0.0
 10
159.5578748516036
 20
-93.52848576220816
 30
0.0
 10
159.9034179287742
 20
-95.22175019320845
 30
0.0
 10
159.9034179287742
 20
-95.22175019320845
 30
0.0
 10
160.1328612880918
 20
-94.81609019982028
 30
0.0
 10
160.1328612880918
 20
-94.81609019982028
 30
0.0
 10
160.5951931022123
 20
-94.04352753725301
 30
0.0
 10
161.1381401506877
 20
-93.30972219889479
 30
0.0
 10
161.7627359621635
 20
-92.61467418474564
 30
0.0
 10
164.1405408660829
 20
-89.97590329781853
 30
0.0
 10
167.0120279530387
 20
-88.65660398174211
 30
0.0
 10
170.3809868280645
 20
-88.65660398174211
 30
0.0
 10
170.3809868280645
 20
-88.65660398174211
 30
0.0
 10
174.0110839408722
 20
-88.65660398174211
 30
0.0
 10
174.0110839408722
 20
-88.65660398174211
 30
0.0
 10
174.0110839408722
 20
-88.65660398174211
 30
0.0
 10
174.0110839408722
 20
-86.00715329881072
 30
0.0
 10
174.0110839408722
 20
-86.00715329881072
 30
0.0
 10
174.0110839408722
 20
-86.00715329881072
 30
0.0
 10
174.0110839408722
 20
-83.60833331243126
 30
0.0
 10
174.0110839408722
 20
-83.60833331243126
 30
0.0
 10
174.0110839408722
 20
-83.60833331243126
 30
0.0
 10
174.0110839408722
 20
-80.5532226361117
 30
0.0
 10
174.0110839408722
 20
-80.5532226361117
 30
0.0
 10
174.0110839408722
 20
-80.5532226361117
 30
0.0
 10
174.0110839408722
 20
-79.6149508807039
 30
0.0
 10
174.0110839408722
 20
-79.6149508807039
 30
0.0
 10
174.0110839408722
 20
-78.80001354366806
 30
0.0
 10
175.0235975039872
 20
-78.20022241968606
 30
0.0
 10
175.8349174907635
 20
-78.20022241968606
 30
0.0
 10
175.8349174907635
 20
-78.20022241968606
 30
0.0
 10
185.3530272974118
 20
-78.20022241968606
 30
0.0
 10
185.3530272974118
 20
-78.20022241968606
 30
0.0
 10
185.3954019718803
 20
-78.19677732420081
 30
0.0
 10
185.4339870413151
 20
-78.20022241968606
 30
0.0
 10
185.4763617157837
 20
-78.20022241968606
 30
0.0
 10
186.2914713075938
 20
-78.20022241968606
 30
0.0
 10
186.9474174879854
 20
-78.78933374766378
 30
0.0
 10
186.9474174879854
 20
-79.60082598921439
 30
0.0
 10
186.9474174879854
 20
-79.60082598921439
 30
0.0
 10
186.9474174879854
 20
-79.6149508807039
 30
0.0
 10
186.9474174879854
 20
-79.6149508807039
 30
0.0
 10
186.9474174879854
 20
-79.6149508807039
 30
0.0
 10
186.9474174879854
 20
-80.54271509488169
 30
0.0
 10
186.9474174879854
 20
-80.54271509488169
 30
0.0
 10
186.9474174879854
 20
-80.54271509488169
 30
0.0
 10
186.9474174879854
 20
-88.58959687455399
 30
0.0
 10
186.9474174879854
 20
-88.58959687455399
 30
0.0
 10
186.9474174879854
 20
-88.58959687455399
 30
0.0
 10
209.5289848651525
 20
-88.58959687455399
 30
0.0
 10
209.5289848651525
 20
-88.58959687455399
 30
0.0
 10
210.3437499474141
 20
-88.58959687455399
 30
0.0
 10
211.0000406373542
 20
-89.24933265997933
 30
0.0
 10
211.0000406373542
 20
-90.06065264675567
 30
0.0
 10
211.0000406373542
 20
-90.06065264675567
 30
0.0
 10
211.0000406373542
 20
-91.00254175242299
 30
0.0
 10
211.0000406373542
 20
-91.00254175242299
 30
0.0
 10
211.0000406373542
 20
-91.00254175242299
 30
0.0
 10
211.0000406373542
 20
-91.00254175242299
 30
0.0
 10
211.0000406373542
 20
-91.00615910268249
 30
0.0
 10
211.0000406373542
 20
-91.00615910268249
 30
0.0
 10
211.0000406373542
 20
-110.1338460011124
 30
0.0
 10
211.0000406373542
 20
-110.1338460011124
 30
0.0
 10
211.0000406373542
 20
-110.1338460011124
 30
0.0
 10
211.0000406373542
 20
-130.2032497504353
 30
0.0
 10
211.0000406373542
 20
-130.2032497504353
 30
0.0
 10
211.0000406373542
 20
-130.6090819985977
 30
0.0
 10
210.8339870349651
 20
-130.9756401582283
 30
0.0
 10
210.5694037016979
 20
-131.2440130965293
 30
0.0
 10
210.3013752729455
 20
-131.5085964297965
 30
0.0
 10
209.9344726037664
 20
-131.674305522637
 30
0.0
 10
209.5289848651525
 20
-131.674305522637
 30
0.0
 10
209.5289848651525
 20
-131.674305522637
 30
0.0
 10
199.097235735816
 20
-131.674305522637
 30
0.0
 10
199.097235735816
 20
-131.674305522637
 30
0.0
 10
198.2821261440059
 20
-131.674305522637
 30
0.0
 10
197.2734021859247
 20
-131.0145697372116
 30
0.0
 10
197.2734021859247
 20
-130.2032497504353
 30
0.0
 10
197.2734021859247
 20
-130.2032497504353
 30
0.0
 10
197.2734021859247
 20
-129.2648057402533
 30
0.0
 10
197.2734021859247
 20
-129.2648057402533
 30
0.0
 10
197.2734021859247
 20
-129.2648057402533
 30
0.0
 10
197.2734021859247
 20
-119.602346432773
 30
0.0
 10
197.2734021859247
 20
-119.602346432773
 30
0.0
 10
197.2734021859247
 20
-119.602346432773
 30
0.0
 10
177.9870686403991
 20
-119.602346432773
 30
0.0
 10
177.9870686403991
 20
-119.602346432773
 30
0.0
  0
HATCH
  5
45
330
40
100
AcDbEntity
  8
Layer 1
 62
   178
420
        0
100
AcDbHatch
 10
0.0
 20
0.0
 30
0.0
210
0.0
220
0.0
230
1.0
  2
SOLID
 70
     1
 71
     0
 91
        1
 92
        1
 93
        1
 72
     4
 94
        3
 73
     0
 74
     1
 95
      212
 96
      208
 40
0.0
 40
0.0
 40
0.0
 40
0.0
 40
1.0
 40
1.0
 40
1.0
 40
2.0
 40
2.0
 40
2.0
 40
3.0
 40
3.0
 40
3.0
 40
4.0
 40
4.0
 40
4.0
 40
5.0
 40
5.0
 40
5.0
 40
6.0
 40
6.0
 40
6.0
 40
7.0
 40
7.0
 40
7.0
 40
8.0
 40
8.0
 40
8.0
 40
9.0
 40
9.0
 40
9.0
 40
10.0
 40
10.0
 40
10.0
 40
11.0
 40
11.0
 40
11.0
 40
12.0
 40
12.0
 40
12.0
 40
13.0
 40
13.0
 40
13.0
 40
14.0
 40
14.0
 40
14.0
 40
15.0
 40
15.0
 40
15.0
 40
16.0
 40
16.0
 40
16.0
 40
17.0
 40
17.0
 40
17.0
 40
18.0
 40
18.0
 40
18.0
 40
19.0
 40
19.0
 40
19.0
 40
20.0
 40
20.0
 40
20.0
 40
21.0
 40
21.0
 40
21.0
 40
22.0
 40
22.0
 40
22.0
 40
23.0
 40
23.0
 40
23.0
 40
24.0
 40
24.0
 40
24.0
 40
25.0
 40
25.0
 40
25.0
 40
26.0
 40
26.0
 40
26.0
 40
27.0
 40
27.0
 40
27.0
 40
28.0
 40
28.0
 40
28.0
 40
29.0
 40
29.0
 40
29.0
 40
30.0
 40
30.0
 40
30.0
 40
31.0
 40
31.0
 40
31.0
 40
32.0
 40
32.0
 40
32.0
 40
33.0
 40
33.0
 40
33.0
 40
34.0
 40
34.0
 40
34.0
 40
35.0
 40
35.0
 40
35.0
 40
36.0
 40
36.0
 40
36.0
 40
37.0
 40
37.0
 40
37.0
 40
38.0
 40
38.0
 40
38.0
 40
39.0
 40
39.0
 40
39.0
 40
40.0
 40
40.0
 40
40.0
 40
41.0
 40
41.0
 40
41.0
 40
42.0
 40
42.0
 40
42.0
 40
43.0
 40
43.0
 40
43.0
 40
44.0
 40
44.0
 40
44.0
 40
45.0
 40
45.0
 40
45.0
 40
46.0
 40
46.0
 40
46.0
 40
47.0
 40
47.0
 40
47.0
 40
48.0
 40
48.0
 40
48.0
 40
49.0
 40
49.0
 40
49.0
 40
50.0
 40
50.0
 40
50.0
 40
51.0
 40
51.0
 40
51.0
 40
52.0
 40
52.0
 40
52.0
 40
53.0
 40
53.0
 40
53.0
 40
54.0
 40
54.0
 40
54.0
 40
55.0
 40
55.0
 40
55.0
 40
56.0
 40
56.0
 40
56.0
 40
57.0
 40
57.0
 40
57.0
 40
58.0
 40
58.0
 40
58.0
 40
59.0
 40
59.0
 40
59.0
 40
60.0
 40
60.0
 40
60.0
 40
61.0
 40
61.0
 40
61.0
 40
62.0
 40
62.0
 40
62.0
 40
63.0
 40
63.0
 40
63.0
 40
64.0
 40
64.0
 40
64.0
 40
65.0
 40
65.0
 40
65.0
 40
66.0
 40
66.0
 40
66.0
 40
67.0
 40
67.0
 40
67.0
 40
68.0
 40
68.0
 40
68.0
 40
69.0
 40
69.0
 40
69.0
 40
69.0
 10
177.9870686403991
 20
-119.602346432773
 10
177.9870686403991
 20
-119.602346432773
 10
176.3396239793526
 20
-119.602346432773
 10
176.3396239793526
 20
-119.602346432773
 10
176.3396239793526
 20
-119.602346432773
 10
174.3638617185618
 20
-119.602346432773
 10
174.3638617185618
 20
-119.602346432773
 10
174.3638617185618
 20
-119.602346432773
 10
170.5749457038841
 20
-119.5985568277393
 10
170.5749457038841
 20
-119.5985568277393
 10
167.2059868288582
 20
-119.5985568277393
 10
164.3344997419025
 20
-118.2794297664371
 10
161.9566948379831
 20
-115.6404866247357
 10
161.3427788225115
 20
-114.9597357568503
 10
160.8101670604919
 20
-114.2400553099817
 10
160.3550699468904
 20
-113.4814452841296
 10
160.3550699468904
 20
-113.4814452841296
 10
160.274110202987
 20
-113.4004855402263
 10
160.274110202987
 20
-113.4004855402263
 10
160.274110202987
 20
-113.4004855402263
 10
160.274110202987
 20
-118.1312906605714
 10
160.274110202987
 20
-118.1312906605714
 10
160.274110202987
 20
-118.9426106473477
 10
159.617819513047
 20
-119.602346432773
 10
158.8064995262706
 20
-119.602346432773
 10
158.8064995262706
 20
-119.602346432773
 10
137.4705064217956
 20
-119.602346432773
 10
137.4705064217956
 20
-119.602346432773
 10
137.428131747327
 20
-119.602346432773
 10
137.3857570728584
 20
-119.5916666367687
 10
137.3399373029046
 20
-119.5882215412835
 10
137.3399373029046
 20
-119.5882215412835
 10
117.9442219757223
 20
-119.5882215412835
 10
117.9442219757223
 20
-119.5882215412835
 10
117.9442219757223
 20
-119.5882215412835
 10
117.9442219757223
 20
-119.566861949275
 10
117.9442219757223
 20
-119.566861949275
 10
115.2455064273518
 20
-119.4683322183968
 10
113.0828477364862
 20
-118.8368462159505
 10
111.4602077629336
 20
-117.6689588464508
 10
110.8004719775082
 20
-117.1787217588998
 10
110.4053195253501
 20
-116.6106255133821
 10
109.9714097489829
 20
-115.9650146194463
 10
109.9714097489829
 20
-115.9650146194463
 10
109.9714097489829
 20
-116.9034586296283
 10
109.9714097489829
 20
-116.9034586296283
 10
109.9889797359576
 20
-116.9988877745697
 10
109.9996595319619
 20
-117.0939724099626
 10
109.9996595319619
 20
-117.189401554904
 10
109.9996595319619
 20
-117.189401554904
 10
109.9996595319619
 20
-118.1312906605714
 10
109.9996595319619
 20
-118.1312906605714
 10
109.9996595319619
 20
-118.9426106473477
 10
109.1917846406708
 20
-119.602346432773
 10
108.3804646538945
 20
-119.602346432773
 10
108.3804646538945
 20
-119.602346432773
 10
98.00159774025654
 20
-119.602346432773
 10
98.00159774025654
 20
-119.602346432773
 10
97.94527042907272
 20
-119.602346432773
 10
97.88877086311462
 20
-119.5916666367687
 10
97.83227129715652
 20
-119.5847764457983
 10
97.77594398597269
 20
-119.5916666367687
 10
97.366666642325
 20
-119.602346432773
 10
97.31016707636691
 20
-119.602346432773
 10
96.49884708959057
 20
-119.602346432773
 10
95.84272865442473
 20
-118.9426106473477
 10
95.84272865442473
 20
-118.1312906605714
 10
95.84272865442473
 20
-118.1312906605714
 10
95.84272865442473
 20
-117.189401554904
 10
95.84272865442473
 20
-117.189401554904
 10
95.84272865442473
 20
-117.189401554904
 10
95.84272865442473
 20
-90.14884709117807
 10
95.84272865442473
 20
-90.14884709117807
 10
95.84272865442473
 20
-90.14884709117807
 10
88.59304197003924
 20
-90.14884709117807
 10
88.59304197003924
 20
-90.14884709117807
 10
87.78172198326291
 20
-90.14884709117807
 10
87.12560354809708
 20
-89.48911130575273
 10
87.12560354809708
 20
-88.67779131897639
 10
87.12560354809708
 20
-88.67779131897639
 10
87.12560354809708
 20
-88.58959687455399
 10
87.12560354809708
 20
-88.58959687455399
 10
87.12560354809708
 20
-88.58959687455399
 10
87.12560354809708
 20
-87.73934730879434
 10
87.12560354809708
 20
-87.73934730879434
 10
87.12560354809708
 20
-87.73934730879434
 10
87.12560354809708
 20
-80.72616642947123
 10
87.12560354809708
 20
-80.72616642947123
 10
87.12560354809708
 20
-80.72616642947123
 10
87.12560354809708
 20
-79.78772241928918
 10
87.12560354809708
 20
-79.78772241928918
 10
87.12560354809708
 20
-78.97640243251284
 10
87.78172198326291
 20
-78.20022241968606
 10
88.59304197003924
 20
-78.20022241968606
 10
88.59304197003924
 20
-78.20022241968606
 10
117.0834648687326
 20
-78.20022241968606
 10
117.0834648687326
 20
-78.20022241968606
 10
117.8947848555089
 20
-78.20022241968606
 10
118.5509032906748
 20
-78.97640243251284
 10
118.5509032906748
 20
-79.78772241928918
 10
118.5509032906748
 20
-79.78772241928918
 10
118.5509032906748
 20
-80.72616642947123
 10
118.5509032906748
 20
-80.72616642947123
 10
118.5509032906748
 20
-80.72616642947123
 10
118.5509032906748
 20
-87.7252224173048
 10
118.5509032906748
 20
-87.7252224173048
 10
118.5509032906748
 20
-87.7252224173048
 10
118.5509032906748
 20
-88.58959687455399
 10
118.5509032906748
 20
-88.58959687455399
 10
118.5509032906748
 20
-88.58959687455399
 10
118.5509032906748
 20
-88.65660398174211
 10
118.5509032906748
 20
-88.65660398174211
 10
118.5509032906748
 20
-88.65660398174211
 10
137.4034993146075
 20
-88.65660398174211
 10
137.4034993146075
 20
-88.65660398174211
 10
137.4034993146075
 20
-88.65660398174211
 10
150.7243055178745
 20
-88.65660398174211
 10
150.7243055178745
 20
-88.65660398174211
 10
153.5499728348764
 20
-88.65660398174211
 10
155.8185682119134
 20
-89.43261173979462
 10
157.5328477253737
 20
-90.99203421119297
 10
158.7675699472873
 20
-92.11737465144982
 10
159.5578748516036
 20
-93.52848576220816
 10
159.9034179287742
 20
-95.22175019320845
 10
159.9034179287742
 20
-95.22175019320845
 10
160.1328612880918
 20
-94.81609019982028
 10
160.1328612880918
 20
-94.81609019982028
 10
160.5951931022123
 20
-94.04352753725301
 10
161.1381401506877
 20
-93.30972219889479
 10
161.7627359621635
 20
-92.61467418474564
 10
164.1405408660829
 20
-89.97590329781853
 10
167.0120279530387
 20
-88.65660398174211
 10
170.3809868280645
 20
-88.65660398174211
 10
170.3809868280645
 20
-88.65660398174211
 10
174.0110839408722
 20
-88.65660398174211
 10
174.0110839408722
 20
-88.65660398174211
 10
174.0110839408722
 20
-88.65660398174211
 10
174.0110839408722
 20
-86.00715329881072
 10
174.0110839408722
 20
-86.00715329881072
 10
174.0110839408722
 20
-86.00715329881072
 10
174.0110839408722
 20
-83.60833331243126
 10
174.0110839408722
 20
-83.60833331243126
 10
174.0110839408722
 20
-83.60833331243126
 10
174.0110839408722
 20
-80.5532226361117
 10
174.0110839408722
 20
-80.5532226361117
 10
174.0110839408722
 20
-80.5532226361117
 10
174.0110839408722
 20
-79.6149508807039
 10
174.0110839408722
 20
-79.6149508807039
 10
174.0110839408722
 20
-78.80001354366806
 10
175.0235975039872
 20
-78.20022241968606
 10
175.8349174907635
 20
-78.20022241968606
 10
175.8349174907635
 20
-78.20022241968606
 10
185.3530272974118
 20
-78.20022241968606
 10
185.3530272974118
 20
-78.20022241968606
 10
185.3954019718803
 20
-78.19677732420081
 10
185.4339870413151
 20
-78.20022241968606
 10
185.4763617157837
 20
-78.20022241968606
 10
186.2914713075938
 20
-78.20022241968606
 10
186.9474174879854
 20
-78.78933374766378
 10
186.9474174879854
 20
-79.60082598921439
 10
186.9474174879854
 20
-79.60082598921439
 10
186.9474174879854
 20
-79.6149508807039
 10
186.9474174879854
 20
-79.6149508807039
 10
186.9474174879854
 20
-79.6149508807039
 10
186.9474174879854
 20
-80.54271509488169
 10
186.9474174879854
 20
-80.54271509488169
 10
186.9474174879854
 20
-80.54271509488169
 10
186.9474174879854
 20
-88.58959687455399
 10
186.9474174879854
 20
-88.58959687455399
 10
186.9474174879854
 20
-88.58959687455399
 10
209.5289848651525
 20
-88.58959687455399
 10
209.5289848651525
 20
-88.58959687455399
 10
210.3437499474141
 20
-88.58959687455399
 10
211.0000406373542
 20
-89.24933265997933
 10
211.0000406373542
 20
-90.06065264675567
 10
211.0000406373542
 20
-90.06065264675567
 10
211.0000406373542
 20
-91.00254175242299
 10
211.0000406373542
 20
-91.00254175242299
 10
211.0000406373542
 20
-91.00254175242299
 10
211.0000406373542
 20
-91.00254175242299
 10
211.0000406373542
 20
-91.00615910268249
 10
211.0000406373542
 20
-91.00615910268249
 10
211.0000406373542
 20
-110.1338460011124
 10
211.0000406373542
 20
-110.1338460011124
 10
211.0000406373542
 20
-110.1338460011124
 10
211.0000406373542
 20
-130.2032497504353
 10
211.0000406373542
 20
-130.2032497504353
 10
211.0000406373542
 20
-130.6090819985977
 10
210.8339870349651
 20
-130.9756401582283
 10
210.5694037016979
 20
-131.2440130965293
 10
210.3013752729455
 20
-131.5085964297965
 10
209.9344726037664
 20
-131.674305522637
 10
209.5289848651525
 20
-131.674305522637
 10
209.5289848651525
 20
-131.674305522637
 10
199.097235735816
 20
-131.674305522637
 10
199.097235735816
 20
-131.674305522637
 10
198.2821261440059
 20
-131.674305522637
 10
197.2734021859247
 20
-131.0145697372116
 10
197.2734021859247
 20
-130.2032497504353
 10
197.2734021859247
 20
-130.2032497504353
 10
197.2734021859247
 20
-129.2648057402533
 10
197.2734021859247
 20
-129.2648057402533
 10
197.2734021859247
 20
-129.2648057402533
 10
197.2734021859247
 20
-119.602346432773
 10
197.2734021859247
 20
-119.602346432773
 10
197.2734021859247
 20
-119.602346432773
 10
177.9870686403991
 20
-119.602346432773
 10
177.9870686403991
 20
-119.602346432773
 97
        0
 75
     2
 76
     1
 98
        0
  0
ENDBLK
  5
43
330
40
100
AcDbEntity
  8
0
100
AcDbBlockEnd
  0
BLOCK
  5
48
330
46
100
AcDbEntity
  8
0
100
AcDbBlockBegin
  2
block 4
 70
     0
 71
     0
 10
0.0
 20
0.0
 30
0.0
  3
block 4
  1

  0
SPLINE
  5
4A
330
46
100
AcDbEntity
  8
Layer 1
 62
    47
420
  7498346
370
    35
100
AcDbSpline
210
0.0
220
0.0
230
1.0
 70
     8
 71
     3
 72
   119
 73
   115
 74
     0
 42
0.0000000001
 43
0.0000000001
 40
0.0
 40
0.0
 40
0.0
 40
0.0
 40
1.0
 40
1.0
 40
1.0
 40
2.0
 40
2.0
 40
2.0
 40
3.0
 40
3.0
 40
3.0
 40
4.0
 40
4.0
 40
4.0
 40
5.0
 40
5.0
 40
5.0
 40
6.0
 40
6.0
 40
6.0
 40
7.0
 40
7.0
 40
7.0
 40
8.0
 40
8.0
 40
8.0
 40
9.0
 40
9.0
 40
9.0
 40
10.0
 40
10.0
 40
10.0
 40
11.0
 40
11.0
 40
11.0
 40
12.0
 40
12.0
 40
12.0
 40
13.0
 40
13.0
 40
13.0
 40
14.0
 40
14.0
 40
14.0
 40
15.0
 40
15.0
 40
15.0
 40
16.0
 40
16.0
 40
16.0
 40
17.0
 40
17.0
 40
17.0
 40
18.0
 40
18.0
 40
18.0
 40
19.0
 40
19.0
 40
19.0
 40
20.0
 40
20.0
 40
20.0
 40
21.0
 40
21.0
 40
21.0
 40
22.0
 40
22.0
 40
22.0
 40
23.0
 40
23.0
 40
23.0
 40
24.0
 40
24.0
 40
24.0
 40
25.0
 40
25.0
 40
25.0
 40
26.0
 40
26.0
 40
26.0
 40
27.0
 40
27.0
 40
27.0
 40
28.0
 40
28.0
 40
28.0
 40
29.0
 40
29.0
 40
29.0
 40
30.0
 40
30.0
 40
30.0
 40
31.0
 40
31.0
 40
31.0
 40
32.0
 40
32.0
 40
32.0
 40
33.0
 40
33.0
 40
33.0
 40
34.0
 40
34.0
 40
34.0
 40
35.0
 40
35.0
 40
35.0
 40
36.0
 40
36.0
 40
36.0
 40
37.0
 40
37.0
 40
37.0
 40
38.0
 40
38.0
 40
38.0
 40
38.0
 10
184.0159857395863
 20
-119.5985568277393
 30
0.0
 10
184.0159857395863
 20
-119.5985568277393
 30
0.0
 10
170.5749457038841
 20
-119.5985568277393
 30
0.0
 10
170.5749457038841
 20
-119.5985568277393
 30
0.0
 10
167.2059868288582
 20
-119.5985568277393
 30
0.0
 10
164.3344997419025
 20
-118.2794297664371
 30
0.0
 10
161.9566948379831
 20
-115.6404866247357
 30
0.0
 10
161.3427788225115
 20
-114.9597357568503
 30
0.0
 10
160.8101670604919
 20
-114.2400553099817
 30
0.0
 10
160.3550699468904
 20
-113.4814452841296
 30
0.0
 10
160.3550699468904
 20
-113.4814452841296
 30
0.0
 10
160.274110202987
 20
-113.4004855402263
 30
0.0
 10
160.274110202987
 20
-113.4004855402263
 30
0.0
 10
160.274110202987
 20
-113.4004855402263
 30
0.0
 10
160.274110202987
 20
-118.1312906605714
 30
0.0
 10
160.274110202987
 20
-118.1312906605714
 30
0.0
 10
160.274110202987
 20
-118.9426106473477
 30
0.0
 10
159.617819513047
 20
-119.602346432773
 30
0.0
 10
158.8064995262706
 20
-119.602346432773
 30
0.0
 10
158.8064995262706
 20
-119.602346432773
 30
0.0
 10
137.4705064217956
 20
-119.602346432773
 30
0.0
 10
137.4705064217956
 20
-119.602346432773
 30
0.0
 10
137.428131747327
 20
-119.602346432773
 30
0.0
 10
137.3857570728584
 20
-119.5916666367687
 30
0.0
 10
137.3399373029046
 20
-119.5882215412835
 30
0.0
 10
137.3399373029046
 20
-119.5882215412835
 30
0.0
 10
117.9442219757223
 20
-119.5882215412835
 30
0.0
 10
117.9442219757223
 20
-119.5882215412835
 30
0.0
 10
117.9442219757223
 20
-119.5882215412835
 30
0.0
 10
117.9442219757223
 20
-119.566861949275
 30
0.0
 10
117.9442219757223
 20
-119.566861949275
 30
0.0
 10
115.2455064273518
 20
-119.4683322183968
 30
0.0
 10
113.0828477364862
 20
-118.8368462159505
 30
0.0
 10
111.4602077629336
 20
-117.6689588464508
 30
0.0
 10
110.8004719775082
 20
-117.1787217588998
 30
0.0
 10
110.4053195253501
 20
-116.6106255133821
 30
0.0
 10
109.9714097489829
 20
-115.9650146194463
 30
0.0
 10
109.9714097489829
 20
-115.9650146194463
 30
0.0
 10
109.9714097489829
 20
-116.9034586296283
 30
0.0
 10
109.9714097489829
 20
-116.9034586296283
 30
0.0
 10
109.9889797359576
 20
-116.9988877745697
 30
0.0
 10
109.9996595319619
 20
-117.0939724099626
 30
0.0
 10
109.9996595319619
 20
-117.189401554904
 30
0.0
 10
109.9996595319619
 20
-117.189401554904
 30
0.0
 10
109.9996595319619
 20
-118.1312906605714
 30
0.0
 10
109.9996595319619
 20
-118.1312906605714
 30
0.0
 10
109.9996595319619
 20
-118.9426106473477
 30
0.0
 10
109.1917846406708
 20
-119.602346432773
 30
0.0
 10
108.3804646538945
 20
-119.602346432773
 30
0.0
 10
108.3804646538945
 20
-119.602346432773
 30
0.0
 10
98.00159774025654
 20
-119.602346432773
 30
0.0
 10
98.00159774025654
 20
-119.602346432773
 30
0.0
 10
97.94527042907272
 20
-119.602346432773
 30
0.0
 10
97.88877086311462
 20
-119.5916666367687
 30
0.0
 10
97.83227129715652
 20
-119.5847764457983
 30
0.0
 10
97.77594398597269
 20
-119.5916666367687
 30
0.0
 10
97.366666642325
 20
-119.602346432773
 30
0.0
 10
97.31016707636691
 20
-119.602346432773
 30
0.0
 10
96.49884708959057
 20
-119.602346432773
 30
0.0
 10
95.84272865442473
 20
-118.9426106473477
 30
0.0
 10
95.84272865442473
 20
-118.1312906605714
 30
0.0
 10
95.84272865442473
 20
-118.1312906605714
 30
0.0
 10
95.84272865442473
 20
-117.189401554904
 30
0.0
 10
95.84272865442473
 20
-117.189401554904
 30
0.0
 10
95.84272865442473
 20
-117.189401554904
 30
0.0
 10
95.84272865442473
 20
-90.14884709117807
 30
0.0
 10
95.84272865442473
 20
-90.14884709117807
 30
0.0
 10
95.84272865442473
 20
-90.14884709117807
 30
0.0
 10
88.59304197003924
 20
-90.14884709117807
 30
0.0
 10
88.59304197003924
 20
-90.14884709117807
 30
0.0
 10
87.78172198326291
 20
-90.14884709117807
 30
0.0
 10
87.12560354809708
 20
-89.48911130575273
 30
0.0
 10
87.12560354809708
 20
-88.67779131897639
 30
0.0
 10
87.12560354809708
 20
-88.67779131897639
 30
0.0
 10
87.12560354809708
 20
-88.58959687455399
 30
0.0
 10
87.12560354809708
 20
-88.58959687455399
 30
0.0
 10
87.12560354809708
 20
-88.58959687455399
 30
0.0
 10
87.12560354809708
 20
-87.73934730879434
 30
0.0
 10
87.12560354809708
 20
-87.73934730879434
 30
0.0
 10
87.12560354809708
 20
-87.73934730879434
 30
0.0
 10
87.12560354809708
 20
-80.72616642947123
 30
0.0
 10
87.12560354809708
 20
-80.72616642947123
 30
0.0
 10
87.12560354809708
 20
-80.72616642947123
 30
0.0
 10
87.12560354809708
 20
-79.78772241928918
 30
0.0
 10
87.12560354809708
 20
-79.78772241928918
 30
0.0
 10
87.12560354809708
 20
-78.97640243251284
 30
0.0
 10
87.78172198326291
 20
-78.20022241968606
 30
0.0
 10
88.59304197003924
 20
-78.20022241968606
 30
0.0
 10
88.59304197003924
 20
-78.20022241968606
 30
0.0
 10
117.0834648687326
 20
-78.20022241968606
 30
0.0
 10
117.0834648687326
 20
-78.20022241968606
 30
0.0
 10
117.8947848555089
 20
-78.20022241968606
 30
0.0
 10
118.5509032906748
 20
-78.97640243251284
 30
0.0
 10
118.5509032906748
 20
-79.78772241928918
 30
0.0
 10
118.5509032906748
 20
-79.78772241928918
 30
0.0
 10
118.5509032906748
 20
-80.72616642947123
 30
0.0
 10
118.5509032906748
 20
-80.72616642947123
 30
0.0
 10
118.5509032906748
 20
-80.72616642947123
 30
0.0
 10
118.5509032906748
 20
-87.7252224173048
 30
0.0
 10
118.5509032906748
 20
-87.7252224173048
 30
0.0
 10
118.5509032906748
 20
-87.7252224173048
 30
0.0
 10
118.5509032906748
 20
-88.58959687455399
 30
0.0
 10
118.5509032906748
 20
-88.58959687455399
 30
0.0
 10
118.5509032906748
 20
-88.58959687455399
 30
0.0
 10
118.5509032906748
 20
-88.65660398174211
 30
0.0
 10
118.5509032906748
 20
-88.65660398174211
 30
0.0
 10
118.5509032906748
 20
-88.65660398174211
 30
0.0
 10
137.4034993146075
 20
-88.65660398174211
 30
0.0
 10
137.4034993146075
 20
-88.65660398174211
 30
0.0
 10
137.4034993146075
 20
-88.65660398174211
 30
0.0
 10
150.7243055178745
 20
-88.65660398174211
 30
0.0
 10
150.7243055178745
 20
-88.65660398174211
 30
0.0
 10
150.7243055178745
 20
-88.65660398174211
 30
0.0
 10
151.200417713936
 20
-88.65660398174211
 30
0.0
 10
151.200417713936
 20
-88.65660398174211
 30
0.0
  0
SPLINE
  5
4B
330
46
100
AcDbEntity
  8
Layer 1
 62
    47
420
  7498346
370
    35
100
AcDbSpline
210
0.0
220
0.0
230
1.0
 70
     8
 71
     3
 72
    92
 73
    88
 74
     0
 42
0.0000000001
 43
0.0000000001
 40
0.0
 40
0.0
 40
0.0
 40
0.0
 40
1.0
 40
1.0
 40
1.0
 40
2.0
 40
2.0
 40
2.0
 40
3.0
 40
3.0
 40
3.0
 40
4.0
 40
4.0
 40
4.0
 40
5.0
 40
5.0
 40
5.0
 40
6.0
 40
6.0
 40
6.0
 40
7.0
 40
7.0
 40
7.0
 40
8.0
 40
8.0
 40
8.0
 40
9.0
 40
9.0
 40
9.0
 40
10.0
 40
10.0
 40
10.0
 40
11.0
 40
11.0
 40
11.0
 40
12.0
 40
12.0
 40
12.0
 40
13.0
 40
13.0
 40
13.0
 40
14.0
 40
14.0
 40
14.0
 40
15.0
 40
15.0
 40
15.0
 40
16.0
 40
16.0
 40
16.0
 40
17.0
 40
17.0
 40
17.0
 40
18.0
 40
18.0
 40
18.0
 40
19.0
 40
19.0
 40
19.0
 40
20.0
 40
20.0
 40
20.0
 40
21.0
 40
21.0
 40
21.0
 40
22.0
 40
22.0
 40
22.0
 40
23.0
 40
23.0
 40
23.0
 40
24.0
 40
24.0
 40
24.0
 40
25.0
 40
25.0
 40
25.0
 40
26.0
 40
26.0
 40
26.0
 40
27.0
 40
27.0
 40
27.0
 40
28.0
 40
28.0
 40
28.0
 40
29.0
 40
29.0
 40
29.0
 40
29.0
 10
174.0110839408722
 20
-88.82937552032739
 30
0.0
 10
174.0110839408722
 20
-88.82937552032739
 30
0.0
 10
174.0110839408722
 20
-88.65660398174211
 30
0.0
 10
174.0110839408722
 20
-88.65660398174211
 30
0.0
 10
174.0110839408722
 20
-88.65660398174211
 30
0.0
 10
174.0110839408722
 20
-86.00715329881072
 30
0.0
 10
174.0110839408722
 20
-86.00715329881072
 30
0.0
 10
174.0110839408722
 20
-86.00715329881072
 30
0.0
 10
174.0110839408722
 20
-83.60833331243126
 30
0.0
 10
174.0110839408722
 20
-83.60833331243126
 30
0.0
 10
174.0110839408722
 20
-83.60833331243126
 30
0.0
 10
174.0110839408722
 20
-80.5532226361117
 30
0.0
 10
174.0110839408722
 20
-80.5532226361117
 30
0.0
 10
174.0110839408722
 20
-80.5532226361117
 30
0.0
 10
174.0110839408722
 20
-79.6149508807039
 30
0.0
 10
174.0110839408722
 20
-79.6149508807039
 30
0.0
 10
174.0110839408722
 20
-78.80001354366806
 30
0.0
 10
175.0235975039872
 20
-78.20022241968606
 30
0.0
 10
175.8349174907635
 20
-78.20022241968606
 30
0.0
 10
175.8349174907635
 20
-78.20022241968606
 30
0.0
 10
185.3530272974118
 20
-78.20022241968606
 30
0.0
 10
185.3530272974118
 20
-78.20022241968606
 30
0.0
 10
185.3954019718803
 20
-78.19677732420081
 30
0.0
 10
185.4339870413151
 20
-78.20022241968606
 30
0.0
 10
185.4763617157837
 20
-78.20022241968606
 30
0.0
 10
186.2914713075938
 20
-78.20022241968606
 30
0.0
 10
186.9474174879854
 20
-78.78933374766378
 30
0.0
 10
186.9474174879854
 20
-79.60082598921439
 30
0.0
 10
186.9474174879854
 20
-79.60082598921439
 30
0.0
 10
186.9474174879854
 20
-79.6149508807039
 30
0.0
 10
186.9474174879854
 20
-79.6149508807039
 30
0.0
 10
186.9474174879854
 20
-79.6149508807039
 30
0.0
 10
186.9474174879854
 20
-80.54271509488169
 30
0.0
 10
186.9474174879854
 20
-80.54271509488169
 30
0.0
 10
186.9474174879854
 20
-80.54271509488169
 30
0.0
 10
186.9474174879854
 20
-88.58959687455399
 30
0.0
 10
186.9474174879854
 20
-88.58959687455399
 30
0.0
 10
186.9474174879854
 20
-88.58959687455399
 30
0.0
 10
209.5289848651525
 20
-88.58959687455399
 30
0.0
 10
209.5289848651525
 20
-88.58959687455399
 30
0.0
 10
210.3437499474141
 20
-88.58959687455399
 30
0.0
 10
211.0000406373542
 20
-89.24933265997933
 30
0.0
 10
211.0000406373542
 20
-90.06065264675567
 30
0.0
 10
211.0000406373542
 20
-90.06065264675567
 30
0.0
 10
211.0000406373542
 20
-91.00254175242299
 30
0.0
 10
211.0000406373542
 20
-91.00254175242299
 30
0.0
 10
211.0000406373542
 20
-91.00254175242299
 30
0.0
 10
211.0000406373542
 20
-91.00254175242299
 30
0.0
 10
211.0000406373542
 20
-91.00615910268249
 30
0.0
 10
211.0000406373542
 20
-91.00615910268249
 30
0.0
 10
211.0000406373542
 20
-110.1338460011124
 30
0.0
 10
211.0000406373542
 20
-110.1338460011124
 30
0.0
 10
211.0000406373542
 20
-110.1338460011124
 30
0.0
 10
211.0000406373542
 20
-130.2032497504353
 30
0.0
 10
211.0000406373542
 20
-130.2032497504353
 30
0.0
 10
211.0000406373542
 20
-130.6090819985977
 30
0.0
 10
210.8339870349651
 20
-130.9756401582283
 30
0.0
 10
210.5694037016979
 20
-131.2440130965293
 30
0.0
 10
210.3013752729455
 20
-131.5085964297965
 30
0.0
 10
209.9344726037664
 20
-131.674305522637
 30
0.0
 10
209.5289848651525
 20
-131.674305522637
 30
0.0
 10
209.5289848651525
 20
-131.674305522637
 30
0.0
 10
199.097235735816
 20
-131.674305522637
 30
0.0
 10
199.097235735816
 20
-131.674305522637
 30
0.0
 10
198.2821261440059
 20
-131.674305522637
 30
0.0
 10
197.2734021859247
 20
-131.0145697372116
 30
0.0
 10
197.2734021859247
 20
-130.2032497504353
 30
0.0
 10
197.2734021859247
 20
-130.2032497504353
 30
0.0
 10
197.2734021859247
 20
-129.2648057402533
 30
0.0
 10
197.2734021859247
 20
-129.2648057402533
 30
0.0
 10
197.2734021859247
 20
-129.2648057402533
 30
0.0
 10
197.2734021859247
 20
-119.602346432773
 30
0.0
 10
197.2734021859247
 20
-119.602346432773
 30
0.0
 10
197.2734021859247
 20
-119.602346432773
 30
0.0
 10
177.9870686403991
 20
-119.602346432773
 30
0.0
 10
177.9870686403991
 20
-119.602346432773
 30
0.0
 10
177.9870686403991
 20
-119.602346432773
 30
0.0
 10
176.3396239793526
 20
-119.602346432773
 30
0.0
 10
176.3396239793526
 20
-119.602346432773
 30
0.0
 10
176.3396239793526
 20
-119.602346432773
 30
0.0
 10
174.3638617185618
 20
-119.602346432773
 30
0.0
 10
174.3638617185618
 20
-119.602346432773
 30
0.0
 10
174.3638617185618
 20
-119.602346432773
 30
0.0
 10
170.5749457038841
 20
-119.5985568277393
 30
0.0
 10
170.5749457038841
 20
-119.5985568277393
 30
0.0
 10
170.5749457038841
 20
-119.5985568277393
 30
0.0
 10
169.9999592673958
 20
-119.5985568277393
 30
0.0
 10
169.9999592673958
 20
-119.5985568277393
 30
0.0
  0
SPLINE
  5
4C
330
46
100
AcDbEntity
  8
Layer 1
 62
    47
420
  7498346
370
    35
100
AcDbSpline
210
0.0
220
0.0
230
1.0
 70
     8
 71
     3
 72
    23
 73
    19
 74
     0
 42
0.0000000001
 43
0.0000000001
 40
0.0
 40
0.0
 40
0.0
 40
0.0
 40
1.0
 40
1.0
 40
1.0
 40
2.0
 40
2.0
 40
2.0
 40
3.0
 40
3.0
 40
3.0
 40
4.0
 40
4.0
 40
4.0
 40
5.0
 40
5.0
 40
5.0
 40
6.0
 40
6.0
 40
6.0
 40
6.0
 10
150.7243055178745
 20
-88.65660398174211
 30
0.0
 10
153.5499728348764
 20
-88.65660398174211
 30
0.0
 10
155.8185682119134
 20
-89.43261173979462
 30
0.0
 10
157.5328477253737
 20
-90.99203421119297
 30
0.0
 10
158.7675699472873
 20
-92.11737465144982
 30
0.0
 10
159.5578748516036
 20
-93.52848576220816
 30
0.0
 10
159.9034179287742
 20
-95.22175019320845
 30
0.0
 10
159.9034179287742
 20
-95.22175019320845
 30
0.0
 10
160.1328612880918
 20
-94.81609019982028
 30
0.0
 10
160.1328612880918
 20
-94.81609019982028
 30
0.0
 10
160.5951931022123
 20
-94.04352753725301
 30
0.0
 10
161.1381401506877
 20
-93.30972219889479
 30
0.0
 10
161.7627359621635
 20
-92.61467418474564
 30
0.0
 10
164.1405408660829
 20
-89.97590329781853
 30
0.0
 10
167.0120279530387
 20
-88.65660398174211
 30
0.0
 10
170.3809868280645
 20
-88.65660398174211
 30
0.0
 10
170.3809868280645
 20
-88.65660398174211
 30
0.0
 10
174.0110839408722
 20
-88.65660398174211
 30
0.0
 10
174.0110839408722
 20
-88.65660398174211
 30
0.0
  0
ENDBLK
  5
49
330
46
100
AcDbEntity
  8
0
100
AcDbBlockEnd
  0
BLOCK
  5
4F
330
4D
100
AcDbEntity
  8
0
100
AcDbBlockBegin
  2
block 5
 70
     0
 71
     0
 10
0.0
 20
0.0
 30
0.0
  3
block 5
  1

  0
POLYLINE
  5
51
330
4D
100
AcDbEntity
  8
Layer 1
370
     0
100
AcDb2dPolyline
 66
     1
 10
0.0
 20
0.0
 30
0.0
  0
VERTEX
  5
52
330
51
100
AcDbEntity
  8
Layer 1
370
     0
100
AcDbVertex
100
AcDb2dVertex
 10
116.6226833475804
 20
-88.65505368877373
 30
0.0
  0
VERTEX
  5
53
330
51
100
AcDbEntity
  8
Layer 1
370
     0
100
AcDbVertex
100
AcDb2dVertex
 10
88.75323891010336
 20
-88.65505368877373
 30
0.0
  0
VERTEX
  5
54
330
51
100
AcDbEntity
  8
Layer 1
370
     0
100
AcDbVertex
100
AcDb2dVertex
 10
88.75323891010336
 20
-80.07090926817672
 30
0.0
  0
VERTEX
  5
55
330
51
100
AcDbEntity
  8
Layer 1
370
     0
100
AcDbVertex
100
AcDb2dVertex
 10
116.6226833475804
 20
-80.07090926817672
 30
0.0
  0
VERTEX
  5
56
330
51
100
AcDbEntity
  8
Layer 1
370
     0
100
AcDbVertex
100
AcDb2dVertex
 10
116.6226833475804
 20
-88.65505368877373
 30
0.0
  0
SEQEND
  5
57
330
51
100
AcDbEntity
  8
Layer 1
370
     0
  0
HATCH
  5
58
330
4D
100
AcDbEntity
  8
Layer 1
 62
    12
420
 12326679
100
AcDbHatch
 10
0.0
 20
0.0
 30
0.0
210
0.0
220
0.0
230
1.0
  2
SOLID
 70
     1
 71
     0
 91
        1
 92
        1
 93
        4
 72
     1
 10
116.6226833475804
 20
-88.65505368877373
 11
88.75323891010336
 21
-88.65505368877373
 72
     1
 10
88.75323891010336
 20
-88.65505368877373
 11
88.75323891010336
 21
-80.07090926817672
 72
     1
 10
88.75323891010336
 20
-80.07090926817672
 11
116.6226833475804
 21
-80.07090926817672
 72
     1
 10
116.6226833475804
 20
-80.07090926817672
 11
116.6226833475804
 21
-88.65505368877373
 97
        0
 75
     2
 76
     1
 98
        0
  0
POLYLINE
  5
59
330
4D
100
AcDbEntity
  8
Layer 1
370
     0
100
AcDb2dPolyline
 66
     1
 10
0.0
 20
0.0
 30
0.0
  0
VERTEX
  5
5A
330
59
100
AcDbEntity
  8
Layer 1
370
     0
100
AcDbVertex
100
AcDb2dVertex
 10
97.4548610867474
 20
-88.20856931388536
 30
0.0
  0
VERTEX
  5
5B
330
59
100
AcDbEntity
  8
Layer 1
370
     0
100
AcDbVertex
100
AcDb2dVertex
 10
108.2734944390775
 20
-88.20856931388536
 30
0.0
  0
VERTEX
  5
5C
330
59
100
AcDbEntity
  8
Layer 1
370
     0
100
AcDbVertex
100
AcDb2dVertex
 10
108.2734944390775
 20
-117.6606906172862
 30
0.0
  0
VERTEX
  5
5D
330
59
100
AcDbEntity
  8
Layer 1
370
     0
100
AcDbVertex
100
AcDb2dVertex
 10
97.4548610867474
 20
-117.6606906172862
 30
0.0
  0
VERTEX
  5
5E
330
59
100
AcDbEntity
  8
Layer 1
370
     0
100
AcDbVertex
100
AcDb2dVertex
 10
97.4548610867474
 20
-88.20856931388536
 30
0.0
  0
SEQEND
  5
5F
330
59
100
AcDbEntity
  8
Layer 1
370
     0
  0
HATCH
  5
60
330
4D
100
AcDbEntity
  8
Layer 1
 62
    12
420
 12326679
100
AcDbHatch
 10
0.0
 20
0.0
 30
0.0
210
0.0
220
0.0
230
1.0
  2
SOLID
 70
     1
 71
     0
 91
        1
 92
        1
 93
        4
 72
     1
 10
97.4548610867474
 20
-88.20856931388536
 11
108.2734944390775
 21
-88.20856931388536
 72
     1
 10
108.2734944390775
 20
-88.20856931388536
 11
108.2734944390775
 21
-117.6606906172862
 72
     1
 10
108.2734944390775
 20
-117.6606906172862
 11
97.4548610867474
 21
-117.6606906172862
 72
     1
 10
97.4548610867474
 20
-117.6606906172862
 11
97.4548610867474
 21
-88.20856931388536
 97
        0
 75
     2
 76
     1
 98
        0
  0
ENDBLK
  5
50
330
4D
100
AcDbEntity
  8
0
100
AcDbBlockEnd
  0
BLOCK
  5
6C
330
6A
100
AcDbEntity
  8
0
100
AcDbBlockBegin
  2
block 6
 70
     0
 71
     0
 10
0.0
 20
0.0
 30
0.0
  3
block 6
  1

  0
SPLINE
  5
6E
330
6A
100
AcDbEntity
  8
Layer 1
370
     0
100
AcDbSpline
210
0.0
220
0.0
230
1.0
 70
    11
 71
     3
 72
    17
 73
    13
 74
     0
 42
0.0000000001
 43
0.0000000001
 40
0.0
 40
0.0
 40
0.0
 40
0.0
 40
1.0
 40
1.0
 40
1.0
 40
2.0
 40
2.0
 40
2.0
 40
3.0
 40
3.0
 40
3.0
 40
4.0
 40
4.0
 40
4.0
 40
4.0
 10
122.0573214755621
 20
-112.7779567860416
 30
0.0
 10
119.6609130560223
 20
-112.7779567860416
 30
0.0
 10
117.7178792023414
 20
-110.8349229323607
 30
0.0
 10
117.7178792023414
 20
-108.4385145128209
 30
0.0
 10
117.7178792023414
 20
-106.0421060932811
 30
0.0
 10
119.6609130560223
 20
-104.0994167491488
 30
0.0
 10
122.0573214755621
 20
-104.0994167491488
 30
0.0
 10
124.4537298951018
 20
-104.0994167491488
 30
0.0
 10
126.3967637487828
 20
-106.0421060932811
 30
0.0
 10
126.3967637487828
 20
-108.4385145128209
 30
0.0
 10
126.3967637487828
 20
-110.8349229323607
 30
0.0
 10
124.4537298951018
 20
-112.7779567860416
 30
0.0
 10
122.0573214755621
 20
-112.7779567860416
 30
0.0
  0
ENDBLK
  5
6D
330
6A
100
AcDbEntity
  8
0
100
AcDbBlockEnd
  0
BLOCK
  5
7F
330
7D
100
AcDbEntity
  8
0
100
AcDbBlockBegin
  2
block 7
 70
     0
 71
     0
 10
0.0
 20
0.0
 30
0.0
  3
block 7
  1

  0
ENDBLK
  5
80
330
7D
100
AcDbEntity
  8
0
100
AcDbBlockEnd
  0
BLOCK
  5
84
330
82
100
AcDbEntity
  8
0
100
AcDbBlockBegin
  2
block 8
 70
     0
 71
     0
 10
0.0
 20
0.0
 30
0.0
  3
block 8
  1

  0
SPLINE
  5
86
330
82
100
AcDbEntity
  8
Layer 1
370
     0
100
AcDbSpline
210
0.0
220
0.0
230
1.0
 70
    11
 71
     3
 72
    17
 73
    13
 74
     0
 42
0.0000000001
 43
0.0000000001
 40
0.0
 40
0.0
 40
0.0
 40
0.0
 40
1.0
 40
1.0
 40
1.0
 40
2.0
 40
2.0
 40
2.0
 40
3.0
 40
3.0
 40
3.0
 40
4.0
 40
4.0
 40
4.0
 40
4.0
 10
173.739265907086
 20
-112.7783012955902
 30
0.0
 10
171.3428574875462
 20
-112.7783012955902
 30
0.0
 10
169.3998236338653
 20
-110.8352674419092
 30
0.0
 10
169.3998236338653
 20
-108.4388590223695
 30
0.0
 10
169.3998236338653
 20
-106.0424506028297
 30
0.0
 10
171.3428574875462
 20
-104.0997612586973
 30
0.0
 10
173.739265907086
 20
-104.0997612586973
 30
0.0
 10
176.1356743266258
 20
-104.0997612586973
 30
0.0
 10
178.0787081803067
 20
-106.0424506028297
 30
0.0
 10
178.0787081803067
 20
-108.4388590223695
 30
0.0
 10
178.0787081803067
 20
-110.8352674419092
 30
0.0
 10
176.1356743266258
 20
-112.7783012955902
 30
0.0
 10
173.739265907086
 20
-112.7783012955902
 30
0.0
  0
ENDBLK
  5
85
330
82
100
AcDbEntity
  8
0
100
AcDbBlockEnd
  0
BLOCK
  5
8A
330
88
100
AcDbEntity
  8
0
100
AcDbBlockBegin
  2
block 9
 70
     0
 71
     0
 10
0.0
 20
0.0
 30
0.0
  3
block 9
  1

  0
SPLINE
  5
8C
330
88
100
AcDbEntity
  8
Layer 1
370
     0
100
AcDbSpline
210
0.0
220
0.0
230
1.0
 70
    11
 71
     3
 72
    38
 73
    34
 74
     0
 42
0.0000000001
 43
0.0000000001
 40
0.0
 40
0.0
 40
0.0
 40
0.0
 40
1.0
 40
1.0
 40
1.0
 40
2.0
 40
2.0
 40
2.0
 40
3.0
 40
3.0
 40
3.0
 40
4.0
 40
4.0
 40
4.0
 40
5.0
 40
5.0
 40
5.0
 40
6.0
 40
6.0
 40
6.0
 40
7.0
 40
7.0
 40
7.0
 40
8.0
 40
8.0
 40
8.0
 40
9.0
 40
9.0
 40
9.0
 40
10.0
 40
10.0
 40
10.0
 40
11.0
 40
11.0
 40
11.0
 40
11.0
 10
158.3930880680406
 20
-98.69716251872849
 30
0.0
 10
158.3930880680406
 20
-98.69716251872849
 30
0.0
 10
158.3930880680406
 20
-117.6610351268347
 30
0.0
 10
158.3930880680406
 20
-117.6610351268347
 30
0.0
 10
158.3930880680406
 20
-117.6610351268347
 30
0.0
 10
148.0240396765357
 20
-117.6610351268347
 30
0.0
 10
148.0240396765357
 20
-117.6610351268347
 30
0.0
 10
148.0240396765357
 20
-117.6610351268347
 30
0.0
 10
148.0240396765357
 20
-100.3635552049438
 30
0.0
 10
148.0240396765357
 20
-100.3635552049438
 30
0.0
 10
148.0240396765357
 20
-99.12848847348177
 30
0.0
 10
147.7163926497028
 20
-98.79741479734926
 30
0.0
 10
147.1021321246828
 20
-98.79741479734926
 30
0.0
 10
146.5143988348992
 20
-98.79741479734926
 30
0.0
 10
146.2205321900074
 20
-99.12848847348177
 30
0.0
 10
146.2205321900074
 20
-100.3635552049438
 30
0.0
 10
146.2205321900074
 20
-100.3635552049438
 30
0.0
 10
146.2205321900074
 20
-117.6610351268347
 30
0.0
 10
146.2205321900074
 20
-117.6610351268347
 30
0.0
 10
146.2205321900074
 20
-117.6610351268347
 30
0.0
 10
135.8507947794054
 20
-117.6610351268347
 30
0.0
 10
135.8507947794054
 20
-117.6610351268347
 30
0.0
 10
135.8507947794054
 20
-117.6610351268347
 30
0.0
 10
135.8507947794054
 20
-90.53194170913785
 30
0.0
 10
135.8507947794054
 20
-90.53194170913785
 30
0.0
 10
135.8507947794054
 20
-90.53194170913785
 30
0.0
 10
149.546082861919
 20
-90.53194170913785
 30
0.0
 10
149.546082861919
 20
-90.53194170913785
 30
0.0
 10
152.2118977484054
 20
-90.53194170913785
 30
0.0
 10
154.3526800829396
 20
-91.26678057614164
 30
0.0
 10
155.9691188846188
 20
-92.73611380060069
 30
0.0
 10
157.584868667201
 20
-94.20579153460828
 30
0.0
 10
158.3930880680406
 20
-96.19257810095186
 30
0.0
 10
158.3930880680406
 20
-98.69716251872849
 30
0.0
  0
HATCH
  5
8D
330
88
100
AcDbEntity
  8
Layer 1
 62
    12
420
 12326679
100
AcDbHatch
 10
0.0
 20
0.0
 30
0.0
210
0.0
220
0.0
230
1.0
  2
SOLID
 70
     1
 71
     0
 91
        1
 92
        1
 93
        1
 72
     4
 94
        3
 73
     0
 74
     1
 95
       38
 96
       34
 40
0.0
 40
0.0
 40
0.0
 40
0.0
 40
1.0
 40
1.0
 40
1.0
 40
2.0
 40
2.0
 40
2.0
 40
3.0
 40
3.0
 40
3.0
 40
4.0
 40
4.0
 40
4.0
 40
5.0
 40
5.0
 40
5.0
 40
6.0
 40
6.0
 40
6.0
 40
7.0
 40
7.0
 40
7.0
 40
8.0
 40
8.0
 40
8.0
 40
9.0
 40
9.0
 40
9.0
 40
10.0
 40
10.0
 40
10.0
 40
11.0
 40
11.0
 40
11.0
 40
11.0
 10
158.3930880680406
 20
-98.69716251872849
 10
158.3930880680406
 20
-98.69716251872849
 10
158.3930880680406
 20
-117.6610351268347
 10
158.3930880680406
 20
-117.6610351268347
 10
158.3930880680406
 20
-117.6610351268347
 10
148.0240396765357
 20
-117.6610351268347
 10
148.0240396765357
 20
-117.6610351268347
 10
148.0240396765357
 20
-117.6610351268347
 10
148.0240396765357
 20
-100.3635552049438
 10
148.0240396765357
 20
-100.3635552049438
 10
148.0240396765357
 20
-99.12848847348177
 10
147.7163926497028
 20
-98.79741479734926
 10
147.1021321246828
 20
-98.79741479734926
 10
146.5143988348992
 20
-98.79741479734926
 10
146.2205321900074
 20
-99.12848847348177
 10
146.2205321900074
 20
-100.3635552049438
 10
146.2205321900074
 20
-100.3635552049438
 10
146.2205321900074
 20
-117.6610351268347
 10
146.2205321900074
 20
-117.6610351268347
 10
146.2205321900074
 20
-117.6610351268347
 10
135.8507947794054
 20
-117.6610351268347
 10
135.8507947794054
 20
-117.6610351268347
 10
135.8507947794054
 20
-117.6610351268347
 10
135.8507947794054
 20
-90.53194170913785
 10
135.8507947794054
 20
-90.53194170913785
 10
135.8507947794054
 20
-90.53194170913785
 10
149.546082861919
 20
-90.53194170913785
 10
149.546082861919
 20
-90.53194170913785
 10
152.2118977484054
 20
-90.53194170913785
 10
154.3526800829396
 20
-91.26678057614164
 10
155.9691188846188
 20
-92.73611380060069
 10
157.584868667201
 20
-94.20579153460828
 10
158.3930880680406
 20
-96.19257810095186
 10
158.3930880680406
 20
-98.69716251872849
 97
        0
 75
     2
 76
     1
 98
        0
  0
ENDBLK
  5
8B
330
88
100
AcDbEntity
  8
0
100
AcDbBlockEnd
  0
BLOCK
  5
90
330
8E
100
AcDbEntity
  8
0
100
AcDbBlockBegin
  2
block 10
 70
     0
 71
     0
 10
0.0
 20
0.0
 30
0.0
  3
block 10
  1

  0
SPLINE
  5
92
330
8E
100
AcDbEntity
  8
Layer 1
370
     0
100
AcDbSpline
210
0.0
220
0.0
230
1.0
 70
    11
 71
     3
 72
    41
 73
    37
 74
     0
 42
0.0000000001
 43
0.0000000001
 40
0.0
 40
0.0
 40
0.0
 40
0.0
 40
1.0
 40
1.0
 40
1.0
 40
2.0
 40
2.0
 40
2.0
 40
3.0
 40
3.0
 40
3.0
 40
4.0
 40
4.0
 40
4.0
 40
5.0
 40
5.0
 40
5.0
 40
6.0
 40
6.0
 40
6.0
 40
7.0
 40
7.0
 40
7.0
 40
8.0
 40
8.0
 40
8.0
 40
9.0
 40
9.0
 40
9.0
 40
10.0
 40
10.0
 40
10.0
 40
11.0
 40
11.0
 40
11.0
 40
12.0
 40
12.0
 40
12.0
 40
12.0
 10
208.9236815883941
 20
-83.20319008336587
 30
0.0
 10
209.2726697610499
 20
-83.20319008336587
 30
0.0
 10
209.6137342140896
 20
-83.29276256598237
 30
0.0
 10
209.9461859284162
 20
-83.47190753121536
 30
0.0
 10
210.2786376427428
 20
-83.65105249644836
 30
0.0
 10
210.5377088232336
 20
-83.90736760055094
 30
0.0
 10
210.7233994698886
 20
-84.24085284352313
 30
0.0
 10
210.9090901165436
 20
-84.5743380864953
 30
0.0
 10
211.0017631850968
 20
-84.92212047573128
 30
0.0
 10
211.0017631850968
 20
-85.28402775645678
 30
0.0
 10
211.0017631850968
 20
-85.64231768692275
 30
0.0
 10
210.9104681547377
 20
-85.98682723544775
 30
0.0
 10
210.7275335844709
 20
-86.31755640203173
 30
0.0
 10
210.5445990142041
 20
-86.6482855686157
 30
0.0
 10
210.2882839101015
 20
-86.90511743704108
 30
0.0
 10
209.9585882721631
 20
-87.0878797525336
 30
0.0
 10
209.6288926342247
 20
-87.27081432280036
 30
0.0
 10
209.2836940666027
 20
-87.36210935315948
 30
0.0
 10
208.9236815883941
 20
-87.36210935315948
 30
0.0
 10
208.5636691101855
 20
-87.36210935315948
 30
0.0
 10
208.2184705425634
 20
-87.27081432280036
 30
0.0
 10
207.8887749046251
 20
-87.0878797525336
 30
0.0
 10
207.5590792666866
 20
-86.90511743704108
 30
0.0
 10
207.302075143487
 20
-86.6482855686157
 30
0.0
 10
207.1184515541232
 20
-86.31755640203173
 30
0.0
 10
206.9348279647594
 20
-85.98682723544775
 30
0.0
 10
206.8428439153032
 20
-85.64231768692275
 30
0.0
 10
206.8428439153032
 20
-85.28402775645678
 30
0.0
 10
206.8428439153032
 20
-84.92212047573128
 30
0.0
 10
206.9362060029535
 20
-84.5743380864953
 30
0.0
 10
207.1225856687055
 20
-84.24085284352313
 30
0.0
 10
207.3089653344575
 20
-83.90736760055094
 30
0.0
 10
207.5687255340453
 20
-83.65105249644836
 30
0.0
 10
207.9011772483719
 20
-83.47190753121536
 30
0.0
 10
208.2336289626986
 20
-83.29276256598237
 30
0.0
 10
208.5746934157383
 20
-83.20319008336587
 30
0.0
 10
208.9236815883941
 20
-83.20319008336587
 30
0.0
  0
SPLINE
  5
93
330
8E
100
AcDbEntity
  8
Layer 1
370
     0
100
AcDbSpline
210
0.0
220
0.0
230
1.0
 70
    11
 71
     3
 72
    41
 73
    37
 74
     0
 42
0.0000000001
 43
0.0000000001
 40
0.0
 40
0.0
 40
0.0
 40
0.0
 40
1.0
 40
1.0
 40
1.0
 40
2.0
 40
2.0
 40
2.0
 40
3.0
 40
3.0
 40
3.0
 40
4.0
 40
4.0
 40
4.0
 40
5.0
 40
5.0
 40
5.0
 40
6.0
 40
6.0
 40
6.0
 40
7.0
 40
7.0
 40
7.0
 40
8.0
 40
8.0
 40
8.0
 40
9.0
 40
9.0
 40
9.0
 40
10.0
 40
10.0
 40
10.0
 40
11.0
 40
11.0
 40
11.0
 40
12.0
 40
12.0
 40
12.0
 40
12.0
 10
208.9236815883941
 20
-83.54769963189085
 30
0.0
 10
208.6315374912449
 20
-83.54769963189085
 30
0.0
 10
208.3473171137118
 20
-83.62263045869504
 30
0.0
 10
208.0706759462462
 20
-83.77231985752914
 30
0.0
 10
207.7940347787807
 20
-83.92218151113751
 30
0.0
 10
207.577682782307
 20
-84.13612194077153
 30
0.0
 10
207.4216199568252
 20
-84.41448565597972
 30
0.0
 10
207.2655571313433
 20
-84.6928493711879
 30
0.0
 10
207.1873534638282
 20
-84.98275415627168
 30
0.0
 10
207.1873534638282
 20
-85.28402775645678
 30
0.0
 10
207.1873534638282
 20
-85.58357880889925
 30
0.0
 10
207.2641790931492
 20
-85.87072751759482
 30
0.0
 10
207.4174858422429
 20
-86.14530162776923
 30
0.0
 10
207.5707925913365
 20
-86.42004799271791
 30
0.0
 10
207.7854220400675
 20
-86.63416067712619
 30
0.0
 10
208.0610296788875
 20
-86.7874674262198
 30
0.0
 10
208.3366373177075
 20
-86.94094643008768
 30
0.0
 10
208.6243027907259
 20
-87.01759980463449
 30
0.0
 10
208.9236815883941
 20
-87.01759980463449
 30
0.0
 10
209.2230603860623
 20
-87.01759980463449
 30
0.0
 10
209.5107258590807
 20
-86.94094643008768
 30
0.0
 10
209.7863334979006
 20
-86.7874674262198
 30
0.0
 10
210.0619411367206
 20
-86.63416067712619
 30
0.0
 10
210.2758815663547
 20
-86.42004799271791
 30
0.0
 10
210.4284992963512
 20
-86.14530162776923
 30
0.0
 10
210.5811170263478
 20
-85.87072751759482
 30
0.0
 10
210.6572536365718
 20
-85.58357880889925
 30
0.0
 10
210.6572536365718
 20
-85.28402775645678
 30
0.0
 10
210.6572536365718
 20
-84.98275415627168
 30
0.0
 10
210.5797389881537
 20
-84.6928493711879
 30
0.0
 10
210.4243651817689
 20
-84.41448565597972
 30
0.0
 10
210.2689913753842
 20
-84.13612194077153
 30
0.0
 10
210.0526393789105
 20
-83.92218151113751
 30
0.0
 10
209.7753091923479
 20
-83.77231985752914
 30
0.0
 10
209.4979790057852
 20
-83.62263045869504
 30
0.0
 10
209.2141031378007
 20
-83.54769963189085
 30
0.0
 10
208.9236815883941
 20
-83.54769963189085
 30
0.0
  0
SPLINE
  5
94
330
8E
100
AcDbEntity
  8
Layer 1
370
     0
100
AcDbSpline
210
0.0
220
0.0
230
1.0
 70
    11
 71
     3
 72
    56
 73
    52
 74
     0
 42
0.0000000001
 43
0.0000000001
 40
0.0
 40
0.0
 40
0.0
 40
0.0
 40
1.0
 40
1.0
 40
1.0
 40
2.0
 40
2.0
 40
2.0
 40
3.0
 40
3.0
 40
3.0
 40
4.0
 40
4.0
 40
4.0
 40
5.0
 40
5.0
 40
5.0
 40
6.0
 40
6.0
 40
6.0
 40
7.0
 40
7.0
 40
7.0
 40
8.0
 40
8.0
 40
8.0
 40
9.0
 40
9.0
 40
9.0
 40
10.0
 40
10.0
 40
10.0
 40
11.0
 40
11.0
 40
11.0
 40
12.0
 40
12.0
 40
12.0
 40
13.0
 40
13.0
 40
13.0
 40
14.0
 40
14.0
 40
14.0
 40
15.0
 40
15.0
 40
15.0
 40
16.0
 40
16.0
 40
16.0
 40
17.0
 40
17.0
 40
17.0
 40
17.0
 10
208.0114203038999
 20
-86.43331161033612
 30
0.0
 10
208.0114203038999
 20
-86.43331161033612
 30
0.0
 10
208.0114203038999
 20
-84.19537758311783
 30
0.0
 10
208.0114203038999
 20
-84.19537758311783
 30
0.0
 10
208.0114203038999
 20
-84.19537758311783
 30
0.0
 10
208.7803656162077
 20
-84.19537758311783
 30
0.0
 10
208.7803656162077
 20
-84.19537758311783
 30
0.0
 10
209.0432264017323
 20
-84.19537758311783
 30
0.0
 10
209.233395672518
 20
-84.21604815602933
 30
0.0
 10
209.3508734285651
 20
-84.25738930185233
 30
0.0
 10
209.4683511846121
 20
-84.29873044767533
 30
0.0
 10
209.5620577818109
 20
-84.37090519809131
 30
0.0
 10
209.6319932201615
 20
-84.47374129832602
 30
0.0
 10
209.701928658512
 20
-84.57674965333499
 30
0.0
 10
209.736724122913
 20
-84.68595918021741
 30
0.0
 10
209.736724122913
 20
-84.8017143885218
 30
0.0
 10
209.736724122913
 20
-84.96535642407116
 30
0.0
 10
209.6785020092123
 20
-85.10763886761198
 30
0.0
 10
209.5617132722624
 20
-85.22890622869278
 30
0.0
 10
209.4449245353124
 20
-85.35017358977358
 30
0.0
 10
209.2902397480247
 20
-85.41821422560726
 30
0.0
 10
209.0973144008507
 20
-85.43285588141957
 30
0.0
 10
209.1762070874629
 20
-85.46592879807797
 30
0.0
 10
209.2395968443915
 20
-85.50554739615833
 30
0.0
 10
209.2874836716365
 20
-85.55136716611216
 30
0.0
 10
209.3774006638015
 20
-85.63956161053456
 30
0.0
 10
209.4876437193295
 20
-85.78752846162604
 30
0.0
 10
209.6182128382204
 20
-85.99509546461235
 30
0.0
 10
209.6182128382204
 20
-85.99509546461235
 30
0.0
 10
209.8910644006523
 20
-86.43331161033612
 30
0.0
 10
209.8910644006523
 20
-86.43331161033612
 30
0.0
 10
209.8910644006523
 20
-86.43331161033612
 30
0.0
 10
209.4500921785403
 20
-86.43331161033612
 30
0.0
 10
209.4500921785403
 20
-86.43331161033612
 30
0.0
 10
209.4500921785403
 20
-86.43331161033612
 30
0.0
 10
209.2516546785899
 20
-86.08053383264654
 30
0.0
 10
209.2516546785899
 20
-86.08053383264654
 30
0.0
 10
209.0955918531081
 20
-85.80320364608393
 30
0.0
 10
208.9695013583479
 20
-85.62957083362733
 30
0.0
 10
208.8740722134065
 20
-85.55963539527676
 30
0.0
 10
208.8079263800897
 20
-85.50830347254654
 30
0.0
 10
208.7114637065027
 20
-85.48246525640717
 30
0.0
 10
208.5846841926455
 20
-85.48246525640717
 30
0.0
 10
208.5846841926455
 20
-85.48246525640717
 30
0.0
 10
208.3724663107541
 20
-85.48246525640717
 30
0.0
 10
208.3724663107541
 20
-85.48246525640717
 30
0.0
 10
208.3724663107541
 20
-85.48246525640717
 30
0.0
 10
208.3724663107541
 20
-86.43331161033612
 30
0.0
 10
208.3724663107541
 20
-86.43331161033612
 30
0.0
 10
208.3724663107541
 20
-86.43331161033612
 30
0.0
 10
208.0114203038999
 20
-86.43331161033612
 30
0.0
 10
208.0114203038999
 20
-86.43331161033612
 30
0.0
  0
SPLINE
  5
95
330
8E
100
AcDbEntity
  8
Layer 1
370
     0
100
AcDbSpline
210
0.0
220
0.0
230
1.0
 70
    11
 71
     3
 72
    29
 73
    25
 74
     0
 42
0.0000000001
 43
0.0000000001
 40
0.0
 40
0.0
 40
0.0
 40
0.0
 40
1.0
 40
1.0
 40
1.0
 40
2.0
 40
2.0
 40
2.0
 40
3.0
 40
3.0
 40
3.0
 40
4.0
 40
4.0
 40
4.0
 40
5.0
 40
5.0
 40
5.0
 40
6.0
 40
6.0
 40
6.0
 40
7.0
 40
7.0
 40
7.0
 40
8.0
 40
8.0
 40
8.0
 40
8.0
 10
208.3724663107541
 20
-85.17378470092878
 30
0.0
 10
208.3724663107541
 20
-85.17378470092878
 30
0.0
 10
208.8106824564779
 20
-85.17378470092878
 30
0.0
 10
208.8106824564779
 20
-85.17378470092878
 30
0.0
 10
209.0201442619811
 20
-85.17378470092878
 30
0.0
 10
209.163115724619
 20
-85.14260658678727
 30
0.0
 10
209.239252334843
 20
-85.08007810372999
 30
0.0
 10
209.315388945067
 20
-85.01772187544697
 30
0.0
 10
209.3536295049533
 20
-84.93503958380097
 30
0.0
 10
209.3536295049533
 20
-84.83203122879199
 30
0.0
 10
209.3536295049533
 20
-84.7658853954752
 30
0.0
 10
209.3353704988814
 20
-84.70662975312891
 30
0.0
 10
209.2985079771893
 20
-84.6542643017531
 30
0.0
 10
209.2616454554971
 20
-84.60189885037731
 30
0.0
 10
209.2106580423154
 20
-84.56296927139398
 30
0.0
 10
209.1455457376442
 20
-84.5371310552546
 30
0.0
 10
209.080433432973
 20
-84.5114650938895
 30
0.0
 10
208.9595105814407
 20
-84.49854598581982
 30
0.0
 10
208.7831216925959
 20
-84.49854598581982
 30
0.0
 10
208.7831216925959
 20
-84.49854598581982
 30
0.0
 10
208.3724663107541
 20
-84.49854598581982
 30
0.0
 10
208.3724663107541
 20
-84.49854598581982
 30
0.0
 10
208.3724663107541
 20
-84.49854598581982
 30
0.0
 10
208.3724663107541
 20
-85.17378470092878
 30
0.0
 10
208.3724663107541
 20
-85.17378470092878
 30
0.0
  0
HATCH
  5
96
330
8E
100
AcDbEntity
  8
Layer 1
 62
    47
420
  7498346
100
AcDbHatch
 10
0.0
 20
0.0
 30
0.0
210
0.0
220
0.0
230
1.0
  2
SOLID
 70
     1
 71
     0
 91
        4
 92
        1
 93
        1
 72
     4
 94
        3
 73
     0
 74
     1
 95
       41
 96
       37
 40
0.0
 40
0.0
 40
0.0
 40
0.0
 40
1.0
 40
1.0
 40
1.0
 40
2.0
 40
2.0
 40
2.0
 40
3.0
 40
3.0
 40
3.0
 40
4.0
 40
4.0
 40
4.0
 40
5.0
 40
5.0
 40
5.0
 40
6.0
 40
6.0
 40
6.0
 40
7.0
 40
7.0
 40
7.0
 40
8.0
 40
8.0
 40
8.0
 40
9.0
 40
9.0
 40
9.0
 40
10.0
 40
10.0
 40
10.0
 40
11.0
 40
11.0
 40
11.0
 40
12.0
 40
12.0
 40
12.0
 40
12.0
 10
208.9236815883941
 20
-83.20319008336587
 10
209.2726697610499
 20
-83.20319008336587
 10
209.6137342140896
 20
-83.29276256598237
 10
209.9461859284162
 20
-83.47190753121536
 10
210.2786376427428
 20
-83.65105249644836
 10
210.5377088232336
 20
-83.90736760055094
 10
210.7233994698886
 20
-84.24085284352313
 10
210.9090901165436
 20
-84.5743380864953
 10
211.0017631850968
 20
-84.92212047573128
 10
211.0017631850968
 20
-85.28402775645678
 10
211.0017631850968
 20
-85.64231768692275
 10
210.9104681547377
 20
-85.98682723544775
 10
210.7275335844709
 20
-86.31755640203173
 10
210.5445990142041
 20
-86.6482855686157
 10
210.2882839101015
 20
-86.90511743704108
 10
209.9585882721631
 20
-87.0878797525336
 10
209.6288926342247
 20
-87.27081432280036
 10
209.2836940666027
 20
-87.36210935315948
 10
208.9236815883941
 20
-87.36210935315948
 10
208.5636691101855
 20
-87.36210935315948
 10
208.2184705425634
 20
-87.27081432280036
 10
207.8887749046251
 20
-87.0878797525336
 10
207.5590792666866
 20
-86.90511743704108
 10
207.302075143487
 20
-86.6482855686157
 10
207.1184515541232
 20
-86.31755640203173
 10
206.9348279647594
 20
-85.98682723544775
 10
206.8428439153032
 20
-85.64231768692275
 10
206.8428439153032
 20
-85.28402775645678
 10
206.8428439153032
 20
-84.92212047573128
 10
206.9362060029535
 20
-84.5743380864953
 10
207.1225856687055
 20
-84.24085284352313
 10
207.3089653344575
 20
-83.90736760055094
 10
207.5687255340453
 20
-83.65105249644836
 10
207.9011772483719
 20
-83.47190753121536
 10
208.2336289626986
 20
-83.29276256598237
 10
208.5746934157383
 20
-83.20319008336587
 10
208.9236815883941
 20
-83.20319008336587
 97
        0
 92
        1
 93
        1
 72
     4
 94
        3
 73
     0
 74
     1
 95
       41
 96
       37
 40
0.0
 40
0.0
 40
0.0
 40
0.0
 40
1.0
 40
1.0
 40
1.0
 40
2.0
 40
2.0
 40
2.0
 40
3.0
 40
3.0
 40
3.0
 40
4.0
 40
4.0
 40
4.0
 40
5.0
 40
5.0
 40
5.0
 40
6.0
 40
6.0
 40
6.0
 40
7.0
 40
7.0
 40
7.0
 40
8.0
 40
8.0
 40
8.0
 40
9.0
 40
9.0
 40
9.0
 40
10.0
 40
10.0
 40
10.0
 40
11.0
 40
11.0
 40
11.0
 40
12.0
 40
12.0
 40
12.0
 40
12.0
 10
208.9236815883941
 20
-83.54769963189085
 10
208.6315374912449
 20
-83.54769963189085
 10
208.3473171137118
 20
-83.62263045869504
 10
208.0706759462462
 20
-83.77231985752914
 10
207.7940347787807
 20
-83.92218151113751
 10
207.577682782307
 20
-84.13612194077153
 10
207.4216199568252
 20
-84.41448565597972
 10
207.2655571313433
 20
-84.6928493711879
 10
207.1873534638282
 20
-84.98275415627168
 10
207.1873534638282
 20
-85.28402775645678
 10
207.1873534638282
 20
-85.58357880889925
 10
207.2641790931492
 20
-85.87072751759482
 10
207.4174858422429
 20
-86.14530162776923
 10
207.5707925913365
 20
-86.42004799271791
 10
207.7854220400675
 20
-86.63416067712619
 10
208.0610296788875
 20
-86.7874674262198
 10
208.3366373177075
 20
-86.94094643008768
 10
208.6243027907259
 20
-87.01759980463449
 10
208.9236815883941
 20
-87.01759980463449
 10
209.2230603860623
 20
-87.01759980463449
 10
209.5107258590807
 20
-86.94094643008768
 10
209.7863334979006
 20
-86.7874674262198
 10
210.0619411367206
 20
-86.63416067712619
 10
210.2758815663547
 20
-86.42004799271791
 10
210.4284992963512
 20
-86.14530162776923
 10
210.5811170263478
 20
-85.87072751759482
 10
210.6572536365718
 20
-85.58357880889925
 10
210.6572536365718
 20
-85.28402775645678
 10
210.6572536365718
 20
-84.98275415627168
 10
210.5797389881537
 20
-84.6928493711879
 10
210.4243651817689
 20
-84.41448565597972
 10
210.2689913753842
 20
-84.13612194077153
 10
210.0526393789105
 20
-83.92218151113751
 10
209.7753091923479
 20
-83.77231985752914
 10
209.4979790057852
 20
-83.62263045869504
 10
209.2141031378007
 20
-83.54769963189085
 10
208.9236815883941
 20
-83.54769963189085
 97
        0
 92
        1
 93
        1
 72
     4
 94
        3
 73
     0
 74
     1
 95
       56
 96
       52
 40
0.0
 40
0.0
 40
0.0
 40
0.0
 40
1.0
 40
1.0
 40
1.0
 40
2.0
 40
2.0
 40
2.0
 40
3.0
 40
3.0
 40
3.0
 40
4.0
 40
4.0
 40
4.0
 40
5.0
 40
5.0
 40
5.0
 40
6.0
 40
6.0
 40
6.0
 40
7.0
 40
7.0
 40
7.0
 40
8.0
 40
8.0
 40
8.0
 40
9.0
 40
9.0
 40
9.0
 40
10.0
 40
10.0
 40
10.0
 40
11.0
 40
11.0
 40
11.0
 40
12.0
 40
12.0
 40
12.0
 40
13.0
 40
13.0
 40
13.0
 40
14.0
 40
14.0
 40
14.0
 40
15.0
 40
15.0
 40
15.0
 40
16.0
 40
16.0
 40
16.0
 40
17.0
 40
17.0
 40
17.0
 40
17.0
 10
208.0114203038999
 20
-86.43331161033612
 10
208.0114203038999
 20
-86.43331161033612
 10
208.0114203038999
 20
-84.19537758311783
 10
208.0114203038999
 20
-84.19537758311783
 10
208.0114203038999
 20
-84.19537758311783
 10
208.7803656162077
 20
-84.19537758311783
 10
208.7803656162077
 20
-84.19537758311783
 10
209.0432264017323
 20
-84.19537758311783
 10
209.233395672518
 20
-84.21604815602933
 10
209.3508734285651
 20
-84.25738930185233
 10
209.4683511846121
 20
-84.29873044767533
 10
209.5620577818109
 20
-84.37090519809131
 10
209.6319932201615
 20
-84.47374129832602
 10
209.701928658512
 20
-84.57674965333499
 10
209.736724122913
 20
-84.68595918021741
 10
209.736724122913
 20
-84.8017143885218
 10
209.736724122913
 20
-84.96535642407116
 10
209.6785020092123
 20
-85.10763886761198
 10
209.5617132722624
 20
-85.22890622869278
 10
209.4449245353124
 20
-85.35017358977358
 10
209.2902397480247
 20
-85.41821422560726
 10
209.0973144008507
 20
-85.43285588141957
 10
209.1762070874629
 20
-85.46592879807797
 10
209.2395968443915
 20
-85.50554739615833
 10
209.2874836716365
 20
-85.55136716611216
 10
209.3774006638015
 20
-85.63956161053456
 10
209.4876437193295
 20
-85.78752846162604
 10
209.6182128382204
 20
-85.99509546461235
 10
209.6182128382204
 20
-85.99509546461235
 10
209.8910644006523
 20
-86.43331161033612
 10
209.8910644006523
 20
-86.43331161033612
 10
209.8910644006523
 20
-86.43331161033612
 10
209.4500921785403
 20
-86.43331161033612
 10
209.4500921785403
 20
-86.43331161033612
 10
209.4500921785403
 20
-86.43331161033612
 10
209.2516546785899
 20
-86.08053383264654
 10
209.2516546785899
 20
-86.08053383264654
 10
209.0955918531081
 20
-85.80320364608393
 10
208.9695013583479
 20
-85.62957083362733
 10
208.8740722134065
 20
-85.55963539527676
 10
208.8079263800897
 20
-85.50830347254654
 10
208.7114637065027
 20
-85.48246525640717
 10
208.5846841926455
 20
-85.48246525640717
 10
208.5846841926455
 20
-85.48246525640717
 10
208.3724663107541
 20
-85.48246525640717
 10
208.3724663107541
 20
-85.48246525640717
 10
208.3724663107541
 20
-85.48246525640717
 10
208.3724663107541
 20
-86.43331161033612
 10
208.3724663107541
 20
-86.43331161033612
 10
208.3724663107541
 20
-86.43331161033612
 10
208.0114203038999
 20
-86.43331161033612
 10
208.0114203038999
 20
-86.43331161033612
 97
        0
 92
        1
 93
        1
 72
     4
 94
        3
 73
     0
 74
     1
 95
       29
 96
       25
 40
0.0
 40
0.0
 40
0.0
 40
0.0
 40
1.0
 40
1.0
 40
1.0
 40
2.0
 40
2.0
 40
2.0
 40
3.0
 40
3.0
 40
3.0
 40
4.0
 40
4.0
 40
4.0
 40
5.0
 40
5.0
 40
5.0
 40
6.0
 40
6.0
 40
6.0
 40
7.0
 40
7.0
 40
7.0
 40
8.0
 40
8.0
 40
8.0
 40
8.0
 10
208.3724663107541
 20
-85.17378470092878
 10
208.3724663107541
 20
-85.17378470092878
 10
208.8106824564779
 20
-85.17378470092878
 10
208.8106824564779
 20
-85.17378470092878
 10
209.0201442619811
 20
-85.17378470092878
 10
209.163115724619
 20
-85.14260658678727
 10
209.239252334843
 20
-85.08007810372999
 10
209.315388945067
 20
-85.01772187544697
 10
209.3536295049533
 20
-84.93503958380097
 10
209.3536295049533
 20
-84.83203122879199
 10
209.3536295049533
 20
-84.7658853954752
 10
209.3353704988814
 20
-84.70662975312891
 10
209.2985079771893
 20
-84.6542643017531
 10
209.2616454554971
 20
-84.60189885037731
 10
209.2106580423154
 20
-84.56296927139398
 10
209.1455457376442
 20
-84.5371310552546
 10
209.080433432973
 20
-84.5114650938895
 10
208.9595105814407
 20
-84.49854598581982
 10
208.7831216925959
 20
-84.49854598581982
 10
208.7831216925959
 20
-84.49854598581982
 10
208.3724663107541
 20
-84.49854598581982
 10
208.3724663107541
 20
-84.49854598581982
 10
208.3724663107541
 20
-84.49854598581982
 10
208.3724663107541
 20
-85.17378470092878
 10
208.3724663107541
 20
-85.17378470092878
 97
        0
 75
     2
 76
     1
 98
        0
  0
ENDBLK
  5
91
330
8E
100
AcDbEntity
  8
0
100
AcDbBlockEnd
  0
ENDSEC
  0
SECTION
  2
ENTITIES
  0
INSERT
  5
3D
330
1F
100
AcDbEntity
  8
Layer 1
100
AcDbBlockReference
  2
block 2
 10
0.0
 20
0.0
 30
0.0
  0
INSERT
  5
4E
330
1F
100
AcDbEntity
  8
Layer 1
100
AcDbBlockReference
  2
block 5
 10
0.0
 20
0.0
 30
0.0
  0
SPLINE
  5
61
330
1F
100
AcDbEntity
  8
Layer 1
370
     0
100
AcDbSpline
210
0.0
220
0.0
230
1.0
 70
     8
 71
     3
 72
    56
 73
    52
 74
     0
 42
0.0000000001
 43
0.0000000001
 40
0.0
 40
0.0
 40
0.0
 40
0.0
 40
1.0
 40
1.0
 40
1.0
 40
2.0
 40
2.0
 40
2.0
 40
3.0
 40
3.0
 40
3.0
 40
4.0
 40
4.0
 40
4.0
 40
5.0
 40
5.0
 40
5.0
 40
6.0
 40
6.0
 40
6.0
 40
7.0
 40
7.0
 40
7.0
 40
8.0
 40
8.0
 40
8.0
 40
9.0
 40
9.0
 40
9.0
 40
10.0
 40
10.0
 40
10.0
 40
11.0
 40
11.0
 40
11.0
 40
12.0
 40
12.0
 40
12.0
 40
13.0
 40
13.0
 40
13.0
 40
14.0
 40
14.0
 40
14.0
 40
15.0
 40
15.0
 40
15.0
 40
16.0
 40
16.0
 40
16.0
 40
17.0
 40
17.0
 40
17.0
 40
17.0
 10
197.0122639481428
 20
-109.7645317650936
 30
0.0
 10
197.0122639481428
 20
-109.7645317650936
 30
0.0
 10
197.0122639481428
 20
-90.53090818049228
 30
0.0
 10
197.0122639481428
 20
-90.53090818049228
 30
0.0
 10
197.0122639481428
 20
-90.53090818049228
 30
0.0
 10
186.7510470453261
 20
-90.53090818049228
 30
0.0
 10
186.7510470453261
 20
-90.53090818049228
 30
0.0
 10
186.7510470453261
 20
-90.53090818049228
 30
0.0
 10
186.7510470453261
 20
-114.0019992119509
 30
0.0
 10
186.7510470453261
 20
-114.0019992119509
 30
0.0
 10
186.7510470453261
 20
-114.9693820242091
 30
0.0
 10
187.0466362379606
 20
-115.8196315899687
 30
0.0
 10
187.6371256041324
 20
-116.5499918328417
 30
0.0
 10
188.2289930084983
 20
-117.2803520757146
 30
0.0
 10
188.9152560291601
 20
-117.6455321971511
 30
0.0
 10
189.6979817234088
 20
-117.6455321971511
 30
0.0
 10
189.6979817234088
 20
-117.6455321971511
 30
0.0
 10
199.1030923981409
 20
-117.6455321971511
 30
0.0
 10
199.1030923981409
 20
-117.6455321971511
 30
0.0
 10
199.1030923981409
 20
-117.6455321971511
 30
0.0
 10
199.1030923981409
 20
-121.8237440016621
 30
0.0
 10
199.1030923981409
 20
-121.8237440016621
 30
0.0
 10
199.1030923981409
 20
-121.8237440016621
 30
0.0
 10
199.1030923981409
 20
-129.7336832357958
 30
0.0
 10
199.1030923981409
 20
-129.7336832357958
 30
0.0
 10
199.1030923981409
 20
-129.7336832357958
 30
0.0
 10
206.0442707818223
 20
-129.7336832357958
 30
0.0
 10
206.0442707818223
 20
-129.7336832357958
 30
0.0
 10
206.0442707818223
 20
-129.7336832357958
 30
0.0
 10
208.991205459905
 20
-129.7336832357958
 30
0.0
 10
208.991205459905
 20
-129.7336832357958
 30
0.0
 10
208.991205459905
 20
-129.7336832357958
 30
0.0
 10
208.991205459905
 20
-90.53090818049228
 30
0.0
 10
208.991205459905
 20
-90.53090818049228
 30
0.0
 10
208.991205459905
 20
-90.53090818049228
 30
0.0
 10
199.1030923981409
 20
-90.53090818049228
 30
0.0
 10
199.1030923981409
 20
-90.53090818049228
 30
0.0
 10
199.1030923981409
 20
-90.53090818049228
 30
0.0
 10
199.1030923981409
 20
-109.7645317650936
 30
0.0
 10
199.1030923981409
 20
-109.7645317650936
 30
0.0
 10
199.1030923981409
 20
-109.7645317650936
 30
0.0
 10
199.1030923981409
 20
-109.7645317650936
 30
0.0
 10
199.1030923981409
 20
-109.7645317650936
 30
0.0
 10
199.1030923981409
 20
-109.7762450897434
 30
0.0
 10
199.1030923981409
 20
-110.3150580236365
 30
0.0
 10
199.1030923981409
 20
-110.3209146859614
 30
0.0
 10
199.1030923981409
 20
-110.8983126892893
 30
0.0
 10
198.635248431244
 20
-111.3661566561862
 30
0.0
 10
198.0578504279161
 20
-111.3661566561862
 30
0.0
 10
197.4804524245882
 20
-111.3661566561862
 30
0.0
 10
197.0126084576913
 20
-110.8983126892893
 30
0.0
 10
197.0126084576913
 20
-110.3209146859614
 30
0.0
  0
HATCH
  5
62
330
1F
100
AcDbEntity
  8
Layer 1
 62
    12
420
 12326679
100
AcDbHatch
 10
0.0
 20
0.0
 30
0.0
210
0.0
220
0.0
230
1.0
  2
SOLID
 70
     1
 71
     0
 91
        1
 92
        1
 93
        2
 72
     4
 94
        3
 73
     0
 74
     0
 95
       56
 96
       52
 40
0.0
 40
0.0
 40
0.0
 40
0.0
 40
0.3527777776895833
 40
0.3527777776895833
 40
0.3527777776895833
 40
0.7055555553791667
 40
0.7055555553791667
 40
0.7055555553791667
 40
1.05833333306875
 40
1.05833333306875
 40
1.05833333306875
 40
1.411111110758333
 40
1.411111110758333
 40
1.411111110758333
 40
1.763888888447917
 40
1.763888888447917
 40
1.763888888447917
 40
2.1166666661375
 40
2.1166666661375
 40
2.1166666661375
 40
2.469444443827083
 40
2.469444443827083
 40
2.469444443827083
 40
2.822222221516667
 40
2.822222221516667
 40
2.822222221516667
 40
3.17499999920625
 40
3.17499999920625
 40
3.17499999920625
 40
3.527777776895833
 40
3.527777776895833
 40
3.527777776895833
 40
3.880555554585417
 40
3.880555554585417
 40
3.880555554585417
 40
4.233333332275
 40
4.233333332275
 40
4.233333332275
 40
4.586111109964584
 40
4.586111109964584
 40
4.586111109964584
 40
4.938888887654167
 40
4.938888887654167
 40
4.938888887654167
 40
5.29166666534375
 40
5.29166666534375
 40
5.29166666534375
 40
5.644444443033334
 40
5.644444443033334
 40
5.644444443033334
 40
5.997222220722917
 40
5.997222220722917
 40
5.997222220722917
 40
5.997222220722917
 10
197.0122639481428
 20
-109.7645317650936
 10
197.0122639481428
 20
-109.7645317650936
 10
197.0122639481428
 20
-90.53090818049228
 10
197.0122639481428
 20
-90.53090818049228
 10
197.0122639481428
 20
-90.53090818049228
 10
186.7510470453261
 20
-90.53090818049228
 10
186.7510470453261
 20
-90.53090818049228
 10
186.7510470453261
 20
-90.53090818049228
 10
186.7510470453261
 20
-114.0019992119509
 10
186.7510470453261
 20
-114.0019992119509
 10
186.7510470453261
 20
-114.9693820242091
 10
187.0466362379606
 20
-115.8196315899687
 10
187.6371256041324
 20
-116.5499918328417
 10
188.2289930084983
 20
-117.2803520757146
 10
188.9152560291601
 20
-117.6455321971511
 10
189.6979817234088
 20
-117.6455321971511
 10
189.6979817234088
 20
-117.6455321971511
 10
199.1030923981409
 20
-117.6455321971511
 10
199.1030923981409
 20
-117.6455321971511
 10
199.1030923981409
 20
-117.6455321971511
 10
199.1030923981409
 20
-121.8237440016621
 10
199.1030923981409
 20
-121.8237440016621
 10
199.1030923981409
 20
-121.8237440016621
 10
199.1030923981409
 20
-129.7336832357958
 10
199.1030923981409
 20
-129.7336832357958
 10
199.1030923981409
 20
-129.7336832357958
 10
206.0442707818223
 20
-129.7336832357958
 10
206.0442707818223
 20
-129.7336832357958
 10
206.0442707818223
 20
-129.7336832357958
 10
208.991205459905
 20
-129.7336832357958
 10
208.991205459905
 20
-129.7336832357958
 10
208.991205459905
 20
-129.7336832357958
 10
208.991205459905
 20
-90.53090818049228
 10
208.991205459905
 20
-90.53090818049228
 10
208.991205459905
 20
-90.53090818049228
 10
199.1030923981409
 20
-90.53090818049228
 10
199.1030923981409
 20
-90.53090818049228
 10
199.1030923981409
 20
-90.53090818049228
 10
199.1030923981409
 20
-109.7645317650936
 10
199.1030923981409
 20
-109.7645317650936
 10
199.1030923981409
 20
-109.7645317650936
 10
199.1030923981409
 20
-109.7645317650936
 10
199.1030923981409
 20
-109.7645317650936
 10
199.1030923981409
 20
-109.7762450897434
 10
199.1030923981409
 20
-110.3150580236365
 10
199.1030923981409
 20
-110.3209146859614
 10
199.1030923981409
 20
-110.8983126892893
 10
198.635248431244
 20
-111.3661566561862
 10
198.0578504279161
 20
-111.3661566561862
 10
197.4804524245882
 20
-111.3661566561862
 10
197.0126084576913
 20
-110.8983126892893
 10
197.0126084576913
 20
-110.3209146859614
 72
     1
 10
197.0126084576913
 20
-110.3209146859614
 11
197.0122639481428
 21
-109.7645317650936
 97
        0
 75
     2
 76
     1
 98
        0
  0
SPLINE
  5
63
330
1F
100
AcDbEntity
  8
Layer 1
370
     0
100
AcDbSpline
210
0.0
220
0.0
230
1.0
 70
    11
 71
     3
 72
    47
 73
    43
 74
     0
 42
0.0000000001
 43
0.0000000001
 40
0.0
 40
0.0
 40
0.0
 40
0.0
 40
1.0
 40
1.0
 40
1.0
 40
2.0
 40
2.0
 40
2.0
 40
3.0
 40
3.0
 40
3.0
 40
4.0
 40
4.0
 40
4.0
 40
5.0
 40
5.0
 40
5.0
 40
6.0
 40
6.0
 40
6.0
 40
7.0
 40
7.0
 40
7.0
 40
8.0
 40
8.0
 40
8.0
 40
9.0
 40
9.0
 40
9.0
 40
10.0
 40
10.0
 40
10.0
 40
11.0
 40
11.0
 40
11.0
 40
12.0
 40
12.0
 40
12.0
 40
13.0
 40
13.0
 40
13.0
 40
14.0
 40
14.0
 40
14.0
 40
14.0
 10
132.1281968528187
 20
-93.37052813420945
 30
0.0
 10
130.4983221787469
 20
-91.62662079957599
 30
0.0
 10
128.5191148224709
 20
-90.53194170913785
 30
0.0
 10
126.1909192935391
 20
-90.53194170913785
 30
0.0
 10
126.1909192935391
 20
-90.53194170913785
 30
0.0
 10
111.4999986157882
 20
-90.53194170913785
 30
0.0
 10
111.4999986157882
 20
-90.53194170913785
 30
0.0
 10
111.4999986157882
 20
-90.53194170913785
 30
0.0
 10
111.4999986157882
 20
-98.0748060193181
 30
0.0
 10
111.4999986157882
 20
-98.0748060193181
 30
0.0
 10
111.4999986157882
 20
-98.0748060193181
 30
0.0
 10
122.5470417987903
 20
-98.07446150976958
 30
0.0
 10
122.5470417987903
 20
-98.07446150976958
 30
0.0
 10
123.2763685130177
 20
-98.07446150976958
 30
0.0
 10
123.6412041249057
 20
-98.34042288123086
 30
0.0
 10
123.6412041249057
 20
-98.87200111460493
 30
0.0
 10
123.6412041249057
 20
-99.38669838010125
 30
0.0
 10
123.2763685130177
 20
-99.72380097333294
 30
0.0
 10
122.5470417987903
 20
-99.72380097333294
 30
0.0
 10
122.5470417987903
 20
-99.72380097333294
 30
0.0
 10
117.808829723152
 20
-99.72328420901016
 30
0.0
 10
117.808829723152
 20
-99.72328420901016
 30
0.0
 10
115.5111232892646
 20
-99.72328420901016
 30
0.0
 10
113.5400119073789
 20
-100.5952378763269
 30
0.0
 10
111.8949788131721
 20
-102.3391452109604
 30
0.0
 10
110.249084445094
 20
-104.0830525455938
 30
0.0
 10
109.4269124075391
 20
-106.2009249951512
 30
0.0
 10
109.4269124075391
 20
-108.6924180500838
 30
0.0
 10
109.4269124075391
 20
-111.183566595468
 30
0.0
 10
110.249084445094
 20
-113.3012667902511
 30
0.0
 10
111.8949788131721
 20
-115.0451741248845
 30
0.0
 10
113.5400119073789
 20
-116.7894259690665
 30
0.0
 10
115.5114677988131
 20
-117.6610351268347
 30
0.0
 10
117.808829723152
 20
-117.6610351268347
 30
0.0
 10
117.808829723152
 20
-117.6610351268347
 30
0.0
 10
134.5728366091519
 20
-117.6610351268347
 30
0.0
 10
134.5728366091519
 20
-117.6610351268347
 30
0.0
 10
134.5728366091519
 20
-117.6610351268347
 30
0.0
 10
134.5728366091519
 20
-99.72328420901016
 30
0.0
 10
134.5728366091519
 20
-99.72328420901016
 30
0.0
 10
134.5728366091519
 20
-97.232135663626
 30
0.0
 10
133.7578992721161
 20
-95.11443546884293
 30
0.0
 10
132.1281968528187
 20
-93.37052813420945
 30
0.0
  0
POLYLINE
  5
64
330
1F
100
AcDbEntity
  8
Layer 1
370
     0
100
AcDb2dPolyline
 66
     1
 10
0.0
 20
0.0
 30
0.0
  0
VERTEX
  5
65
330
64
100
AcDbEntity
  8
Layer 1
370
     0
100
AcDbVertex
100
AcDb2dVertex
 10
122.7397948911901
 20
-98.07446150976958
 30
0.0
  0
VERTEX
  5
97
330
64
100
AcDbEntity
  8
0
100
AcDbVertex
100
AcDb2dVertex
 10
122.7397948911901
 20
-98.07446150976958
 30
0.0
  0
SEQEND
  5
66
330
64
100
AcDbEntity
  8
Layer 1
370
     0
  0
POLYLINE
  5
67
330
1F
100
AcDbEntity
  8
Layer 1
370
     0
100
AcDb2dPolyline
 66
     1
 10
0.0
 20
0.0
 30
0.0
  0
VERTEX
  5
68
330
67
100
AcDbEntity
  8
Layer 1
370
     0
100
AcDbVertex
100
AcDb2dVertex
 10
111.4999986157882
 20
-90.75466713225926
 30
0.0
  0
VERTEX
  5
98
330
67
100
AcDbEntity
  8
0
100
AcDbVertex
100
AcDb2dVertex
 10
111.4999986157882
 20
-90.75466713225926
 30
0.0
  0
SEQEND
  5
69
330
67
100
AcDbEntity
  8
Layer 1
370
     0
  0
INSERT
  5
6B
330
1F
100
AcDbEntity
  8
Layer 1
100
AcDbBlockReference
  2
block 6
 10
0.0
 20
0.0
 30
0.0
  0
HATCH
  5
6F
330
1F
100
AcDbEntity
  8
Layer 1
 62
    12
420
 12326679
100
AcDbHatch
 10
0.0
 20
0.0
 30
0.0
210
0.0
220
0.0
230
1.0
  2
SOLID
 70
     1
 71
     0
 91
        2
 92
        1
 93
        1
 72
     4
 94
        3
 73
     0
 74
     1
 95
       47
 96
       43
 40
0.0
 40
0.0
 40
0.0
 40
0.0
 40
1.0
 40
1.0
 40
1.0
 40
2.0
 40
2.0
 40
2.0
 40
3.0
 40
3.0
 40
3.0
 40
4.0
 40
4.0
 40
4.0
 40
5.0
 40
5.0
 40
5.0
 40
6.0
 40
6.0
 40
6.0
 40
7.0
 40
7.0
 40
7.0
 40
8.0
 40
8.0
 40
8.0
 40
9.0
 40
9.0
 40
9.0
 40
10.0
 40
10.0
 40
10.0
 40
11.0
 40
11.0
 40
11.0
 40
12.0
 40
12.0
 40
12.0
 40
13.0
 40
13.0
 40
13.0
 40
14.0
 40
14.0
 40
14.0
 40
14.0
 10
132.1281968528187
 20
-93.37052813420945
 10
130.4983221787469
 20
-91.62662079957599
 10
128.5191148224709
 20
-90.53194170913785
 10
126.1909192935391
 20
-90.53194170913785
 10
126.1909192935391
 20
-90.53194170913785
 10
111.4999986157882
 20
-90.53194170913785
 10
111.4999986157882
 20
-90.53194170913785
 10
111.4999986157882
 20
-90.53194170913785
 10
111.4999986157882
 20
-98.0748060193181
 10
111.4999986157882
 20
-98.0748060193181
 10
111.4999986157882
 20
-98.0748060193181
 10
122.5470417987903
 20
-98.07446150976958
 10
122.5470417987903
 20
-98.07446150976958
 10
123.2763685130177
 20
-98.07446150976958
 10
123.6412041249057
 20
-98.34042288123086
 10
123.6412041249057
 20
-98.87200111460493
 10
123.6412041249057
 20
-99.38669838010125
 10
123.2763685130177
 20
-99.72380097333294
 10
122.5470417987903
 20
-99.72380097333294
 10
122.5470417987903
 20
-99.72380097333294
 10
117.808829723152
 20
-99.72328420901016
 10
117.808829723152
 20
-99.72328420901016
 10
115.5111232892646
 20
-99.72328420901016
 10
113.5400119073789
 20
-100.5952378763269
 10
111.8949788131721
 20
-102.3391452109604
 10
110.249084445094
 20
-104.0830525455938
 10
109.4269124075391
 20
-106.2009249951512
 10
109.4269124075391
 20
-108.6924180500838
 10
109.4269124075391
 20
-111.183566595468
 10
110.249084445094
 20
-113.3012667902511
 10
111.8949788131721
 20
-115.0451741248845
 10
113.5400119073789
 20
-116.7894259690665
 10
115.5114677988131
 20
-117.6610351268347
 10
117.808829723152
 20
-117.6610351268347
 10
117.808829723152
 20
-117.6610351268347
 10
134.5728366091519
 20
-117.6610351268347
 10
134.5728366091519
 20
-117.6610351268347
 10
134.5728366091519
 20
-117.6610351268347
 10
134.5728366091519
 20
-99.72328420901016
 10
134.5728366091519
 20
-99.72328420901016
 10
134.5728366091519
 20
-97.232135663626
 10
133.7578992721161
 20
-95.11443546884293
 10
132.1281968528187
 20
-93.37052813420945
 97
        0
 92
        1
 93
        1
 72
     4
 94
        3
 73
     0
 74
     1
 95
       17
 96
       13
 40
0.0
 40
0.0
 40
0.0
 40
0.0
 40
1.0
 40
1.0
 40
1.0
 40
2.0
 40
2.0
 40
2.0
 40
3.0
 40
3.0
 40
3.0
 40
4.0
 40
4.0
 40
4.0
 40
4.0
 10
122.0573214755621
 20
-112.7779567860416
 10
119.6609130560223
 20
-112.7779567860416
 10
117.7178792023414
 20
-110.8349229323607
 10
117.7178792023414
 20
-108.4385145128209
 10
117.7178792023414
 20
-106.0421060932811
 10
119.6609130560223
 20
-104.0994167491488
 10
122.0573214755621
 20
-104.0994167491488
 10
124.4537298951018
 20
-104.0994167491488
 10
126.3967637487828
 20
-106.0421060932811
 10
126.3967637487828
 20
-108.4385145128209
 10
126.3967637487828
 20
-110.8349229323607
 10
124.4537298951018
 20
-112.7779567860416
 10
122.0573214755621
 20
-112.7779567860416
 97
        0
 75
     2
 76
     1
 98
        0
  0
POLYLINE
  5
70
330
1F
100
AcDbEntity
  8
Layer 1
 62
    47
420
  7498346
370
    35
100
AcDb2dPolyline
 66
     1
 10
0.0
 20
0.0
 30
0.0
  0
VERTEX
  5
71
330
70
100
AcDbEntity
  8
Layer 1
 62
    47
420
  7498346
370
    35
100
AcDbVertex
100
AcDb2dVertex
 10
189.2990396662169
 20
-126.3151149857823
 30
0.0
  0
VERTEX
  5
99
330
70
100
AcDbEntity
  8
0
100
AcDbVertex
100
AcDb2dVertex
 10
189.2990396662169
 20
-126.3151149857823
 30
0.0
  0
SEQEND
  5
72
330
70
100
AcDbEntity
  8
Layer 1
370
    35
  0
POLYLINE
  5
73
330
1F
100
AcDbEntity
  8
Layer 1
 62
    47
420
  7498346
370
    35
100
AcDb2dPolyline
 66
     1
 10
0.0
 20
0.0
 30
0.0
  0
VERTEX
  5
74
330
73
100
AcDbEntity
  8
Layer 1
 62
    47
420
  7498346
370
    35
100
AcDbVertex
100
AcDb2dVertex
 10
169.9010850269692
 20
-126.2944444128708
 30
0.0
  0
VERTEX
  5
75
330
73
100
AcDbEntity
  8
Layer 1
 62
    47
420
  7498346
370
    35
100
AcDbVertex
100
AcDb2dVertex
 10
169.9010850269692
 20
-126.3151149857823
 30
0.0
  0
SEQEND
  5
76
330
73
100
AcDbEntity
  8
Layer 1
370
    35
  0
POLYLINE
  5
77
330
1F
100
AcDbEntity
  8
Layer 1
 62
    47
420
  7498346
370
    35
100
AcDb2dPolyline
 66
     1
 10
0.0
 20
0.0
 30
0.0
  0
VERTEX
  5
78
330
77
100
AcDbEntity
  8
Layer 1
 62
    47
420
  7498346
370
    35
100
AcDbVertex
100
AcDb2dVertex
 10
166.6874999583281
 20
-119.415277747924
 30
0.0
  0
VERTEX
  5
9A
330
77
100
AcDbEntity
  8
0
100
AcDbVertex
100
AcDb2dVertex
 10
166.6874999583281
 20
-119.415277747924
 30
0.0
  0
SEQEND
  5
79
330
77
100
AcDbEntity
  8
Layer 1
370
    35
  0
POLYLINE
  5
7A
330
1F
100
AcDbEntity
  8
Layer 1
 62
    47
420
  7498346
370
    35
100
AcDb2dPolyline
 66
     1
 10
0.0
 20
0.0
 30
0.0
  0
VERTEX
  5
7B
330
7A
100
AcDbEntity
  8
Layer 1
 62
    47
420
  7498346
370
    35
100
AcDbVertex
100
AcDb2dVertex
 10
160.3588595519242
 20
-119.9999104517709
 30
0.0
  0
VERTEX
  5
9B
330
7A
100
AcDbEntity
  8
0
100
AcDbVertex
100
AcDb2dVertex
 10
160.3588595519242
 20
-119.9999104517709
 30
0.0
  0
SEQEND
  5
7C
330
7A
100
AcDbEntity
  8
Layer 1
370
    35
  0
INSERT
  5
7E
330
1F
100
AcDbEntity
  8
Layer 1
100
AcDbBlockReference
  2
block 7
 10
0.0
 20
0.0
 30
0.0
  0
SPLINE
  5
81
330
1F
100
AcDbEntity
  8
Layer 1
370
     0
100
AcDbSpline
210
0.0
220
0.0
230
1.0
 70
    11
 71
     3
 72
    32
 73
    28
 74
     0
 42
0.0000000001
 43
0.0000000001
 40
0.0
 40
0.0
 40
0.0
 40
0.0
 40
1.0
 40
1.0
 40
1.0
 40
2.0
 40
2.0
 40
2.0
 40
3.0
 40
3.0
 40
3.0
 40
4.0
 40
4.0
 40
4.0
 40
5.0
 40
5.0
 40
5.0
 40
6.0
 40
6.0
 40
6.0
 40
7.0
 40
7.0
 40
7.0
 40
8.0
 40
8.0
 40
8.0
 40
9.0
 40
9.0
 40
9.0
 40
9.0
 10
175.6013400168636
 20
-80.07090926817672
 30
0.0
 10
175.6013400168636
 20
-80.07090926817672
 30
0.0
 10
175.6013400168636
 20
-90.58155108412545
 30
0.0
 10
175.6013400168636
 20
-90.58155108412545
 30
0.0
 10
175.6013400168636
 20
-90.58155108412545
 30
0.0
 10
171.8017442061815
 20
-90.58155108412545
 30
0.0
 10
171.8017442061815
 20
-90.58155108412545
 30
0.0
 10
168.4334743502527
 20
-90.58155108412545
 30
0.0
 10
165.5609537346514
 20
-91.90171167407318
 30
0.0
 10
163.1855603975717
 20
-94.54134383487161
 30
0.0
 10
160.8098225509434
 20
-97.18132050521857
 30
0.0
 10
159.6219536276292
 20
-100.372856962754
 30
0.0
 10
159.6219536276292
 20
-104.1145751692839
 30
0.0
 10
159.6219536276292
 20
-107.8573269044593
 30
0.0
 10
160.8098225509434
 20
-111.0488633619947
 30
0.0
 10
163.1855603975717
 20
-113.6878065036961
 30
0.0
 10
165.5609537346514
 20
-116.3281276835916
 30
0.0
 10
168.4334743502527
 20
-117.6475992544423
 30
0.0
 10
171.8017442061815
 20
-117.6475992544423
 30
0.0
 10
171.8017442061815
 20
-117.6475992544423
 30
0.0
 10
185.2445067896264
 20
-117.6475992544423
 30
0.0
 10
185.2445067896264
 20
-117.6475992544423
 30
0.0
 10
185.2445067896264
 20
-117.6475992544423
 30
0.0
 10
185.2445067896264
 20
-80.07090926817672
 30
0.0
 10
185.2445067896264
 20
-80.07090926817672
 30
0.0
 10
185.2445067896264
 20
-80.07090926817672
 30
0.0
 10
175.6013400168636
 20
-80.07090926817672
 30
0.0
 10
175.6013400168636
 20
-80.07090926817672
 30
0.0
  0
INSERT
  5
83
330
1F
100
AcDbEntity
  8
Layer 1
100
AcDbBlockReference
  2
block 8
 10
0.0
 20
0.0
 30
0.0
  0
HATCH
  5
87
330
1F
100
AcDbEntity
  8
Layer 1
 62
    12
420
 12326679
100
AcDbHatch
 10
0.0
 20
0.0
 30
0.0
210
0.0
220
0.0
230
1.0
  2
SOLID
 70
     1
 71
     0
 91
        2
 92
        1
 93
        1
 72
     4
 94
        3
 73
     0
 74
     1
 95
       32
 96
       28
 40
0.0
 40
0.0
 40
0.0
 40
0.0
 40
1.0
 40
1.0
 40
1.0
 40
2.0
 40
2.0
 40
2.0
 40
3.0
 40
3.0
 40
3.0
 40
4.0
 40
4.0
 40
4.0
 40
5.0
 40
5.0
 40
5.0
 40
6.0
 40
6.0
 40
6.0
 40
7.0
 40
7.0
 40
7.0
 40
8.0
 40
8.0
 40
8.0
 40
9.0
 40
9.0
 40
9.0
 40
9.0
 10
175.6013400168636
 20
-80.07090926817672
 10
175.6013400168636
 20
-80.07090926817672
 10
175.6013400168636
 20
-90.58155108412545
 10
175.6013400168636
 20
-90.58155108412545
 10
175.6013400168636
 20
-90.58155108412545
 10
171.8017442061815
 20
-90.58155108412545
 10
171.8017442061815
 20
-90.58155108412545
 10
168.4334743502527
 20
-90.58155108412545
 10
165.5609537346514
 20
-91.90171167407318
 10
163.1855603975717
 20
-94.54134383487161
 10
160.8098225509434
 20
-97.18132050521857
 10
159.6219536276292
 20
-100.372856962754
 10
159.6219536276292
 20
-104.1145751692839
 10
159.6219536276292
 20
-107.8573269044593
 10
160.8098225509434
 20
-111.0488633619947
 10
163.1855603975717
 20
-113.6878065036961
 10
165.5609537346514
 20
-116.3281276835916
 10
168.4334743502527
 20
-117.6475992544423
 10
171.8017442061815
 20
-117.6475992544423
 10
171.8017442061815
 20
-117.6475992544423
 10
185.2445067896264
 20
-117.6475992544423
 10
185.2445067896264
 20
-117.6475992544423
 10
185.2445067896264
 20
-117.6475992544423
 10
185.2445067896264
 20
-80.07090926817672
 10
185.2445067896264
 20
-80.07090926817672
 10
185.2445067896264
 20
-80.07090926817672
 10
175.6013400168636
 20
-80.07090926817672
 10
175.6013400168636
 20
-80.07090926817672
 97
        0
 92
        1
 93
        1
 72
     4
 94
        3
 73
     0
 74
     1
 95
       17
 96
       13
 40
0.0
 40
0.0
 40
0.0
 40
0.0
 40
1.0
 40
1.0
 40
1.0
 40
2.0
 40
2.0
 40
2.0
 40
3.0
 40
3.0
 40
3.0
 40
4.0
 40
4.0
 40
4.0
 40
4.0
 10
173.739265907086
 20
-112.7783012955902
 10
171.3428574875462
 20
-112.7783012955902
 10
169.3998236338653
 20
-110.8352674419092
 10
169.3998236338653
 20
-108.4388590223695
 10
169.3998236338653
 20
-106.0424506028297
 10
171.3428574875462
 20
-104.0997612586973
 10
173.739265907086
 20
-104.0997612586973
 10
176.1356743266258
 20
-104.0997612586973
 10
178.0787081803067
 20
-106.0424506028297
 10
178.0787081803067
 20
-108.4388590223695
 10
178.0787081803067
 20
-110.8352674419092
 10
176.1356743266258
 20
-112.7783012955902
 10
173.739265907086
 20
-112.7783012955902
 97
        0
 75
     2
 76
     1
 98
        0
  0
INSERT
  5
89
330
1F
100
AcDbEntity
  8
Layer 1
100
AcDbBlockReference
  2
block 9
 10
0.0
 20
0.0
 30
0.0
  0
INSERT
  5
8F
330
1F
100
AcDbEntity
  8
Layer 1
100
AcDbBlockReference
  2
block 10
 10
0.0
 20
0.0
 30
0.0
  0
ENDSEC
  0
SECTION
  2
OBJECTS
  0
DICTIONARY
  5
C
330
0
100
AcDbDictionary
281
     1
  3
ACAD_GROUP
350
D
  3
ACAD_LAYOUT
350
1A
  3
ACAD_MLINESTYLE
350
17
  3
ACAD_PLOTSETTINGS
350
19
  3
ACAD_PLOTSTYLENAME
350
E
  3
ACAD_TABLESTYLE
350
9C
  3
ACAD_VISUALSTYLE
350
2A
  0
DICTIONARY
  5
D
102
{ACAD_REACTORS
330
C
102
}
330
C
100
AcDbDictionary
281
     1
  0
DICTIONARY
  5
1A
102
{ACAD_REACTORS
330
C
102
}
330
C
100
AcDbDictionary
281
     1
  3
Layout1
350
1E
  3
Layout2
350
26
  3
Model
350
22
  0
DICTIONARY
  5
17
102
{ACAD_REACTORS
330
C
102
}
330
C
100
AcDbDictionary
281
     1
  3
Standard
350
18
  0
DICTIONARY
  5
19
102
{ACAD_REACTORS
330
C
102
}
330
C
100
AcDbDictionary
281
     1
  0
ACDBDICTIONARYWDFLT
  5
E
102
{ACAD_REACTORS
330
C
102
}
330
C
100
AcDbDictionary
281
     1
  3
Normal
350
F
100
AcDbDictionaryWithDefault
340
F
  0
DICTIONARY
  5
9C
102
{ACAD_REACTORS
330
C
102
}
330
C
100
AcDbDictionary
281
     1
  0
DICTIONARY
  5
2A
102
{ACAD_REACTORS
330
C
102
}
330
C
100
AcDbDictionary
281
     1
  3
2dWireframe
350
2F
  3
3D Hidden
350
31
  3
3dWireframe
350
30
  3
Basic
350
32
  3
Brighten
350
36
  3
ColorChange
350
3A
  3
Conceptual
350
34
  3
Dim
350
35
  3
Facepattern
350
39
  3
Flat
350
2B
  3
FlatWithEdges
350
2C
  3
Gouraud
350
2D
  3
GouraudWithEdges
350
2E
  3
Linepattern
350
38
  3
Realistic
350
33
  3
Thicken
350
37
  0
LAYOUT
  5
1E
102
{ACAD_REACTORS
330
1A
102
}
330
1A
100
AcDbPlotSettings
  1

  2
none_device
  4

  6

 40
0.0
 41
0.0
 42
0.0
 43
0.0
 44
0.0
 45
0.0
 46
0.0
 47
0.0
 48
0.0
 49
0.0
140
0.0
141
0.0
142
1.0
143
1.0
 70
   688
 72
     0
 73
     0
 74
     5
  7

 75
    16
 76
     0
 77
     2
 78
   300
147
1.0
148
0.0
149
0.0
100
AcDbLayout
  1
Layout1
 70
     1
 71
     1
 10
0.0
 20
0.0
 11
12.0
 21
9.0
 12
0.0
 22
0.0
 32
0.0
 14
1.000000000000000E+20
 24
1.000000000000000E+20
 34
1.000000000000000E+20
 15
-1.000000000000000E+20
 25
-1.000000000000000E+20
 35
-1.000000000000000E+20
146
0.0
 13
0.0
 23
0.0
 33
0.0
 16
1.0
 26
0.0
 36
0.0
 17
0.0
 27
1.0
 37
0.0
 76
     0
330
1B
  0
LAYOUT
  5
26
102
{ACAD_REACTORS
330
1A
102
}
330
1A
100
AcDbPlotSettings
  1

  2
none_device
  4

  6

 40
0.0
 41
0.0
 42
0.0
 43
0.0
 44
0.0
 45
0.0
 46
0.0
 47
0.0
 48
0.0
 49
0.0
140
0.0
141
0.0
142
1.0
143
1.0
 70
   688
 72
     0
 73
     0
 74
     5
  7

 75
    16
 76
     0
 77
     2
 78
   300
147
1.0
148
0.0
149
0.0
100
AcDbLayout
  1
Layout2
 70
     1
 71
     2
 10
0.0
 20
0.0
 11
0.0
 21
0.0
 12
0.0
 22
0.0
 32
0.0
 14
0.0
 24
0.0
 34
0.0
 15
0.0
 25
0.0
 35
0.0
146
0.0
 13
0.0
 23
0.0
 33
0.0
 16
1.0
 26
0.0
 36
0.0
 17
0.0
 27
1.0
 37
0.0
 76
     0
330
23
  0
LAYOUT
  5
22
102
{ACAD_REACTORS
330
1A
102
}
330
1A
100
AcDbPlotSettings
  1

  2
none_device
  4

  6

 40
0.0
 41
0.0
 42
0.0
 43
0.0
 44
0.0
 45
0.0
 46
0.0
 47
0.0
 48
0.0
 49
0.0
140
0.0
141
0.0
142
1.0
143
1.0
 70
  1712
 72
     0
 73
     0
 74
     0
  7

 75
     0
 76
     0
 77
     2
 78
   300
147
1.0
148
0.0
149
0.0
100
AcDbLayout
  1
Model
 70
     1
 71
     0
 10
0.0
 20
0.0
 11
12.0
 21
9.0
 12
0.0
 22
0.0
 32
0.0
 14
1.000000000000000E+20
 24
1.000000000000000E+20
 34
1.000000000000000E+20
 15
-1.000000000000000E+20
 25
-1.000000000000000E+20
 35
-1.000000000000000E+20
146
0.0
 13
0.0
 23
0.0
 33
0.0
 16
1.0
 26
0.0
 36
0.0
 17
0.0
 27
1.0
 37
0.0
 76
     0
330
1F
331
29
  0
MLINESTYLE
  5
18
102
{ACAD_REACTORS
330
17
102
}
330
17
100
AcDbMlineStyle
  2
Standard
 70
     0
  3

 62
   256
 51
90.0
 52
90.0
 71
     2
 49
0.5
 62
   256
  6
BYLAYER
 49
-0.5
 62
   256
  6
BYLAYER
  0
ACDBPLACEHOLDER
  5
F
102
{ACAD_REACTORS
330
E
102
}
330
E
  0
VISUALSTYLE
  5
2F
102
{ACAD_REACTORS
330
2A
102
}
330
2A
100
AcDbVisualStyle
  2
2dWireframe
 70
     4
 71
     0
 72
     2
 73
     0
 90
        0
 40
-0.6
 41
-30.0
 62
     5
 63
     7
421
 16777215
 74
     1
 91
        4
 64
     7
 65
   257
 75
     1
175
     1
 42
1.0
 92
        0
 66
   257
 43
1.0
 76
     1
 77
     6
 78
     2
 67
     7
 79
     5
170
     0
171
     0
290
     0
174
     0
 93
        1
 44
0.0
173
     0
291
     0
 45
0.0
1001
ACAD
1000
AcDbSavedByObjectVersion
1070
     0
  0
VISUALSTYLE
  5
31
102
{ACAD_REACTORS
330
2A
102
}
330
2A
100
AcDbVisualStyle
  2
3D Hidden
 70
     6
 71
     1
 72
     2
 73
     2
 90
        0
 40
-0.6
 41
-30.0
 62
     5
 63
     7
421
 16777215
 74
     2
 91
        2
 64
     7
 65
   257
 75
     2
175
     1
 42
40.0
 92
        0
 66
   257
 43
1.0
 76
     1
 77
     6
 78
     2
 67
     7
 79
     3
170
     0
171
     0
290
     0
174
     0
 93
        1
 44
0.0
173
     0
291
     0
 45
0.0
1001
ACAD
1000
AcDbSavedByObjectVersion
1070
     0
  0
VISUALSTYLE
  5
30
102
{ACAD_REACTORS
330
2A
102
}
330
2A
100
AcDbVisualStyle
  2
3dWireframe
 70
     5
 71
     0
 72
     2
 73
     0
 90
        0
 40
-0.6
 41
-30.0
 62
     5
 63
     7
421
 16777215
 74
     1
 91
        4
 64
     7
 65
   257
 75
     1
175
     1
 42
1.0
 92
        0
 66
   257
 43
1.0
 76
     1
 77
     6
 78
     2
 67
     7
 79
     5
170
     0
171
     0
290
     0
174
     0
 93
        1
 44
0.0
173
     0
291
     0
 45
0.0
1001
ACAD
1000
AcDbSavedByObjectVersion
1070
     0
  0
VISUALSTYLE
  5
32
102
{ACAD_REACTORS
330
2A
102
}
330
2A
100
AcDbVisualStyle
  2
Basic
 70
     7
 71
     1
 72
     0
 73
     1
 90
        0
 40
-0.6
 41
-30.0
 62
     5
 63
     7
421
 16777215
 74
     0
 91
        4
 64
     7
 65
   257
 75
     1
175
     1
 42
1.0
 92
        8
 66
     7
 43
1.0
 76
     1
 77
     6
 78
     2
 67
     7
 79
     5
170
     0
171
     0
290
     0
174
     0
 93
        1
 44
0.0
173
     0
291
     1
 45
0.0
1001
ACAD
1000
AcDbSavedByObjectVersion
1070
     0
  0
VISUALSTYLE
  5
36
102
{ACAD_REACTORS
330
2A
102
}
330
2A
100
AcDbVisualStyle
  2
Brighten
 70
    12
 71
     2
 72
     2
 73
     0
 90
        0
 40
-0.6
 41
-30.0
 62
     5
 63
     7
421
 16777215
 74
     1
 91
        4
 64
     7
 65
   257
 75
     1
175
     1
 42
1.0
 92
        8
 66
     7
 43
1.0
 76
     1
 77
     6
 78
     2
 67
     7
 79
     5
170
     0
171
     0
290
     0
174
     0
 93
        1
 44
50.0
173
     0
291
     1
 45
0.0
1001
ACAD
1000
AcDbSavedByObjectVersion
1070
     0
  0
VISUALSTYLE
  5
3A
102
{ACAD_REACTORS
330
2A
102
}
330
2A
100
AcDbVisualStyle
  2
ColorChange
 70
    16
 71
     2
 72
     2
 73
     3
 90
        0
 40
-0.6
 41
-30.0
 62
     5
 63
     8
421
  8421504
 74
     1
 91
        4
 64
     7
 65
   257
 75
     1
175
     1
 42
1.0
 92
        8
 66
     8
424
  8421504
 43
1.0
 76
     1
 77
     6
 78
     2
 67
     7
 79
     5
170
     0
171
     0
290
     0
174
     0
 93
        1
 44
0.0
173
     0
291
     1
 45
0.0
1001
ACAD
1000
AcDbSavedByObjectVersion
1070
     0
  0
VISUALSTYLE
  5
34
102
{ACAD_REACTORS
330
2A
102
}
330
2A
100
AcDbVisualStyle
  2
Conceptual
 70
     9
 71
     3
 72
     2
 73
     0
 90
        0
 40
-0.6
 41
-30.0
 62
     5
 63
     7
421
 16777215
 74
     2
 91
        2
 64
     7
 65
   257
 75
     1
175
     1
 42
40.0
 92
        8
 66
     7
 43
1.0
 76
     1
 77
     6
 78
     2
 67
     7
 79
     3
170
     0
171
     0
290
     0
174
     0
 93
        1
 44
0.0
173
     0
291
     0
 45
0.0
1001
ACAD
1000
AcDbSavedByObjectVersion
1070
     0
  0
VISUALSTYLE
  5
35
102
{ACAD_REACTORS
330
2A
102
}
330
2A
100
AcDbVisualStyle
  2
Dim
 70
    11
 71
     2
 72
     2
 73
     0
 90
        0
 40
-0.6
 41
-30.0
 62
     5
 63
     7
421
 16777215
 74
     1
 91
        4
 64
     7
 65
   257
 75
     1
175
     1
 42
1.0
 92
        8
 66
     7
 43
1.0
 76
     1
 77
     6
 78
     2
 67
     7
 79
     5
170
     0
171
     0
290
     0
174
     0
 93
        1
 44
-50.0
173
     0
291
     1
 45
0.0
1001
ACAD
1000
AcDbSavedByObjectVersion
1070
     0
  0
VISUALSTYLE
  5
39
102
{ACAD_REACTORS
330
2A
102
}
330
2A
100
AcDbVisualStyle
  2
Facepattern
 70
    15
 71
     2
 72
     2
 73
     0
 90
        0
 40
-0.6
 41
-30.0
 62
     5
 63
     7
421
 16777215
 74
     1
 91
        4
 64
     7
 65
   257
 75
     1
175
     1
 42
1.0
 92
        8
 66
     7
 43
1.0
 76
     1
 77
     6
 78
     2
 67
     7
 79
     5
170
     0
171
     0
290
     0
174
     0
 93
        1
 44
0.0
173
     0
291
     1
 45
0.0
1001
ACAD
1000
AcDbSavedByObjectVersion
1070
     0
  0
VISUALSTYLE
  5
2B
102
{ACAD_REACTORS
330
2A
102
}
330
2A
100
AcDbVisualStyle
  2
Flat
 70
     0
 71
     2
 72
     1
 73
     1
 90
        2
 40
-0.6
 41
30.0
 62
     5
 63
     7
421
 16777215
 74
     0
 91
        4
 64
     7
 65
   257
 75
     1
175
     1
 42
1.0
 92
        8
 66
     7
 43
1.0
 76
     1
 77
     6
 78
     2
 67
     7
 79
     5
170
     0
171
     0
290
     0
174
     0
 93
       13
 44
0.0
173
     0
291
     1
 45
0.0
1001
ACAD
1000
AcDbSavedByObjectVersion
1070
     0
  0
VISUALSTYLE
  5
2C
102
{ACAD_REACTORS
330
2A
102
}
330
2A
100
AcDbVisualStyle
  2
FlatWithEdges
 70
     1
 71
     2
 72
     1
 73
     1
 90
        2
 40
-0.6
 41
30.0
 62
     5
 63
     7
421
 16777215
 74
     1
 91
        4
 64
     7
 65
   257
 75
     1
175
     1
 42
1.0
 92
        0
 66
   257
 43
1.0
 76
     1
 77
     6
 78
     2
 67
     7
 79
     5
170
     0
171
     0
290
     0
174
     0
 93
       13
 44
0.0
173
     0
291
     1
 45
0.0
1001
ACAD
1000
AcDbSavedByObjectVersion
1070
     0
  0
VISUALSTYLE
  5
2D
102
{ACAD_REACTORS
330
2A
102
}
330
2A
100
AcDbVisualStyle
  2
Gouraud
 70
     2
 71
     2
 72
     2
 73
     1
 90
        2
 40
-0.6
 41
30.0
 62
     5
 63
     7
421
 16777215
 74
     0
 91
        4
 64
     7
 65
   257
 75
     1
175
     1
 42
1.0
 92
        0
 66
     7
 43
1.0
 76
     1
 77
     6
 78
     2
 67
     7
 79
     5
170
     0
171
     0
290
     0
174
     0
 93
       13
 44
0.0
173
     0
291
     1
 45
0.0
1001
ACAD
1000
AcDbSavedByObjectVersion
1070
     0
  0
VISUALSTYLE
  5
2E
102
{ACAD_REACTORS
330
2A
102
}
330
2A
100
AcDbVisualStyle
  2
GouraudWithEdges
 70
     3
 71
     2
 72
     2
 73
     1
 90
        2
 40
-0.6
 41
30.0
 62
     5
 63
     7
421
 16777215
 74
     1
 91
        4
 64
     7
 65
   257
 75
     1
175
     1
 42
1.0
 92
        0
 66
   257
 43
1.0
 76
     1
 77
     6
 78
     2
 67
     7
 79
     5
170
     0
171
     0
290
     0
174
     0
 93
       13
 44
0.0
173
     0
291
     1
 45
0.0
1001
ACAD
1000
AcDbSavedByObjectVersion
1070
     0
  0
VISUALSTYLE
  5
38
102
{ACAD_REACTORS
330
2A
102
}
330
2A
100
AcDbVisualStyle
  2
Linepattern
 70
    14
 71
     2
 72
     2
 73
     0
 90
        0
 40
-0.6
 41
-30.0
 62
     5
 63
     7
421
 16777215
 74
     1
 91
        4
 64
     7
 65
   257
 75
     7
175
     7
 42
1.0
 92
        8
 66
     7
 43
1.0
 76
     1
 77
     6
 78
     2
 67
     7
 79
     5
170
     0
171
     0
290
     0
174
     0
 93
        1
 44
0.0
173
     0
291
     1
 45
0.0
1001
ACAD
1000
AcDbSavedByObjectVersion
1070
     0
  0
VISUALSTYLE
  5
33
102
{ACAD_REACTORS
330
2A
102
}
330
2A
100
AcDbVisualStyle
  2
Realistic
 70
     8
 71
     2
 72
     2
 73
     0
 90
        0
 40
-0.6
 41
-30.0
 62
     5
 63
     7
421
 16777215
 74
     1
 91
        0
 64
     7
 65
   257
 75
     1
175
     1
 42
1.0
 92
        8
 66
     8
424
  7895160
 43
1.0
 76
     1
 77
     6
 78
     2
 67
     7
 79
     5
170
     0
171
     0
290
     0
174
     0
 93
       13
 44
0.0
173
     0
291
     0
 45
0.0
1001
ACAD
1000
AcDbSavedByObjectVersion
1070
     0
  0
VISUALSTYLE
  5
37
102
{ACAD_REACTORS
330
2A
102
}
330
2A
100
AcDbVisualStyle
  2
Thicken
 70
    13
 71
     2
 72
     2
 73
     0
 90
        0
 40
-0.6
 41
-30.0
 62
     5
 63
     7
421
 16777215
 74
     1
 91
        4
 64
     7
 65
   257
 75
     1
175
     1
 42
1.0
 92
       12
 66
     7
 43
1.0
 76
     1
 77
     6
 78
     2
 67
     7
 79
     5
170
     0
171
     0
290
     0
174
     0
 93
        1
 44
0.0
173
     0
291
     1
 45
0.0
1001
ACAD
1000
AcDbSavedByObjectVersion
1070
     0
  0
ENDSEC
  0
EOF
